<svg width="990" height="713" viewBox="0 0 990 713" fill="none" xmlns="http://www.w3.org/2000/svg">
<path d="M989.449 488.056H969.663V506.798H989.449V488.056Z" fill="#270F6B"/>
<path d="M989.449 469.314H969.663V488.056H989.449V469.314Z" fill="#270F6B"/>
<path d="M989.449 450.572H969.663V469.314H989.449V450.572Z" fill="#270F6B"/>
<path d="M969.663 506.798H949.878V525.54H969.663L969.663 506.798Z" fill="#270F6B"/>
<path d="M969.663 488.056H949.878V506.798H969.663V488.056Z" fill="#270F6B"/>
<path d="M969.663 469.314H949.878V488.056H969.663V469.314Z" fill="#ECA227"/>
<path d="M969.663 450.572H949.878V469.314H969.663V450.572Z" fill="#270F6B"/>
<path d="M969.663 431.814H949.878V450.556H969.663V431.814Z" fill="#270F6B"/>
<path d="M949.878 506.798H930.092V525.54H949.878V506.798Z" fill="#270F6B"/>
<path d="M949.878 488.056H930.092V506.798H949.878V488.056Z" fill="#ECA227"/>
<path d="M949.878 469.314H930.092V488.056H949.878V469.314Z" fill="#ECA227"/>
<path d="M949.878 450.572H930.092V469.314H949.878V450.572Z" fill="#FAC134"/>
<path d="M949.878 431.814H930.092V450.556H949.878V431.814Z" fill="#270F6B"/>
<path d="M949.877 413.073H930.092V431.814H949.878L949.877 413.073Z" fill="#270F6B"/>
<path d="M949.877 394.331H930.092V413.073H949.877V394.331Z" fill="#270F6B"/>
<path d="M949.877 375.573H930.092V394.314H949.877V375.573Z" fill="#270F6B"/>
<path d="M930.076 525.556H910.29V544.298H930.076V525.556Z" fill="#270F6B"/>
<path d="M930.076 506.798H910.29V525.54H930.076V506.798Z" fill="#ECA227"/>
<path d="M930.076 488.056H910.29V506.798H930.076V488.056Z" fill="#ECA227"/>
<path d="M930.076 469.314H910.29V488.056H930.076V469.314Z" fill="#FAC134"/>
<path d="M930.076 450.572H910.29V469.314H930.076V450.572Z" fill="#FAC134"/>
<path d="M930.076 431.814H910.29V450.556H930.076V431.814Z" fill="#270F6B"/>
<path d="M930.076 413.073H910.29V431.814H930.076V413.073Z" fill="#ECA227"/>
<path d="M930.076 394.331H910.29V413.073H930.076V394.331Z" fill="#ECA227"/>
<path d="M930.076 375.573H910.29V394.314H930.076V375.573Z" fill="#270F6B"/>
<path d="M930.076 356.831H910.29V375.573H930.076V356.831Z" fill="#270F6B"/>
<path d="M930.076 338.089H910.29V356.831H930.076V338.089Z" fill="#270F6B"/>
<path d="M930.076 319.347H910.29V338.089H930.076V319.347Z" fill="#270F6B"/>
<path d="M930.076 300.589H910.29V319.331H930.076V300.589Z" fill="#270F6B"/>
<path d="M910.29 525.556H890.504V544.298H910.29V525.556Z" fill="#270F6B"/>
<path d="M910.29 506.798H890.504V525.54H910.29V506.798Z" fill="#ECA227"/>
<path d="M910.29 488.056H890.504V506.798H910.29V488.056Z" fill="#FAC134"/>
<path d="M910.29 469.314H890.504V488.056H910.29V469.314Z" fill="#FAC134"/>
<path d="M910.29 450.572H890.504V469.314H910.29V450.572Z" fill="#270F6B"/>
<path d="M910.29 431.814H890.504V450.556H910.29V431.814Z" fill="#ECA227"/>
<path d="M910.29 413.073H890.504V431.814H910.29V413.073Z" fill="#FAC134"/>
<path d="M910.29 394.331H890.504V413.073H910.29V394.331Z" fill="#FAC134"/>
<path d="M910.29 375.573H890.504V394.314H910.29V375.573Z" fill="#FAC134"/>
<path d="M910.29 356.831H890.504V375.573H910.29V356.831Z" fill="#FAC134"/>
<path d="M910.29 338.089H890.504V356.831H910.29V338.089Z" fill="#FAC134"/>
<path d="M910.29 319.347H890.504V338.089H910.29V319.347Z" fill="#FAC134"/>
<path d="M910.29 300.589H890.504V319.331H910.29V300.589Z" fill="#FAC134"/>
<path d="M910.29 281.847H890.504V300.589H910.29L910.29 281.847Z" fill="#270F6B"/>
<path d="M910.29 263.106H890.504V281.847H910.29V263.106Z" fill="#270F6B"/>
<path d="M910.29 244.364H890.504V263.106H910.29V244.364Z" fill="#270F6B"/>
<path d="M890.504 544.298H870.719V563.039H890.504L890.504 544.298Z" fill="#270F6B"/>
<path d="M890.504 525.556H870.719V544.298H890.504V525.556Z" fill="#270F6B"/>
<path d="M890.504 506.798H870.719V525.54H890.504V506.798Z" fill="#ECA227"/>
<path d="M890.504 488.056H870.719V506.798H890.504V488.056Z" fill="#FAC134"/>
<path d="M890.504 469.314H870.719V488.056H890.504V469.314Z" fill="#270F6B"/>
<path d="M890.504 450.572H870.719V469.314H890.504V450.572Z" fill="#ECA227"/>
<path d="M890.504 431.814H870.719V450.556H890.504V431.814Z" fill="#ECA227"/>
<path d="M890.504 413.073H870.719V431.814H890.504V413.073Z" fill="#FAC134"/>
<path d="M890.504 394.331H870.719V413.073H890.504V394.331Z" fill="#FAC134"/>
<path d="M890.504 375.573H870.719V394.314H890.504V375.573Z" fill="#FAC134"/>
<path d="M890.504 356.831H870.719V375.573H890.504V356.831Z" fill="#FAC134"/>
<path d="M890.504 338.089H870.719V356.831H890.504V338.089Z" fill="#FAC134"/>
<path d="M890.504 319.347H870.719V338.089H890.504V319.347Z" fill="#FAC134"/>
<path d="M890.504 300.589H870.719V319.331H890.504V300.589Z" fill="#FAC134"/>
<path d="M890.504 281.847H870.719V300.589H890.504V281.847Z" fill="#FAC134"/>
<path d="M890.504 263.106H870.719V281.847H890.504V263.106Z" fill="#FAC134"/>
<path d="M890.504 244.364H870.719V263.106H890.504V244.364Z" fill="#270F6B"/>
<path d="M890.504 225.606H870.719V244.347H890.504V225.606Z" fill="#270F6B"/>
<path d="M890.504 206.864H870.719V225.606H890.504V206.864Z" fill="#270F6B"/>
<path d="M890.504 188.122H870.719V206.864H890.504V188.122Z" fill="#270F6B"/>
<path d="M870.719 544.298H850.933V563.039H870.719V544.298Z" fill="#270F6B"/>
<path d="M870.719 525.556H850.933V544.298H870.719V525.556Z" fill="#ECA227"/>
<path d="M870.719 506.798H850.933V525.54H870.719V506.798Z" fill="#FAC134"/>
<path d="M870.719 488.056H850.933V506.798H870.719V488.056Z" fill="#FAC134"/>
<path d="M870.719 469.314H850.933V488.056H870.719V469.314Z" fill="#270F6B"/>
<path d="M870.719 450.572H850.933V469.314H870.719V450.572Z" fill="#ECA227"/>
<path d="M870.719 431.814H850.933V450.556H870.719V431.814Z" fill="#FAC134"/>
<path d="M870.719 413.073H850.933V431.814H870.719V413.073Z" fill="#FAC134"/>
<path d="M870.719 394.331H850.933V413.073H870.719V394.331Z" fill="#FAC134"/>
<path d="M870.719 375.573H850.933V394.314H870.719V375.573Z" fill="#FAC134"/>
<path d="M870.719 356.831H850.933V375.573H870.719V356.831Z" fill="#FAC134"/>
<path d="M870.719 338.089H850.933V356.831H870.719V338.089Z" fill="#FAC134"/>
<path d="M870.719 319.347H850.933V338.089H870.719V319.347Z" fill="#FBE134"/>
<path d="M870.719 300.589H850.933V319.331H870.719V300.589Z" fill="#FBE134"/>
<path d="M870.719 281.847H850.933V300.589H870.719V281.847Z" fill="#FBE134"/>
<path d="M870.719 263.106H850.933V281.847H870.719V263.106Z" fill="#FAC134"/>
<path d="M870.719 244.364H850.933V263.106H870.719V244.364Z" fill="#FAC134"/>
<path d="M870.719 225.606H850.933V244.347H870.719V225.606Z" fill="#270F6B"/>
<path d="M870.719 206.864H850.933V225.606H870.719V206.864Z" fill="#FBE134"/>
<path d="M870.719 188.122H850.933V206.864H870.719V188.122Z" fill="#FBE134"/>
<path d="M870.718 169.364H850.933V188.106H870.718V169.364Z" fill="#270F6B"/>
<path d="M850.917 563.039H831.131V581.781H850.917V563.039Z" fill="#270F6B"/>
<path d="M850.917 544.298H831.131V563.039H850.917V544.298Z" fill="#270F6B"/>
<path d="M850.917 525.556H831.131V544.298H850.917V525.556Z" fill="#ECA227"/>
<path d="M850.917 506.798H831.131V525.54H850.917V506.798Z" fill="#FAC134"/>
<path d="M850.917 488.056H831.131V506.798H850.917V488.056Z" fill="#FAC134"/>
<path d="M850.917 469.314H831.131V488.056H850.917V469.314Z" fill="#270F6B"/>
<path d="M850.917 450.572H831.131V469.314H850.917V450.572Z" fill="#ECA227"/>
<path d="M850.917 431.814H831.131V450.556H850.917V431.814Z" fill="#FAC134"/>
<path d="M850.917 413.073H831.131V431.814H850.917V413.073Z" fill="#FAC134"/>
<path d="M850.917 394.331H831.131V413.073H850.917V394.331Z" fill="#FAC134"/>
<path d="M850.917 375.573H831.131V394.314H850.917V375.573Z" fill="#FAC134"/>
<path d="M850.917 356.831H831.131V375.573H850.917V356.831Z" fill="#FAC134"/>
<path d="M850.917 338.089H831.131V356.831H850.917V338.089Z" fill="#FBE134"/>
<path d="M850.917 319.347H831.131V338.089H850.917V319.347Z" fill="#FBE134"/>
<path d="M850.917 300.589H831.131V319.331H850.917V300.589Z" fill="#FBE134"/>
<path d="M850.917 281.847H831.131V300.589H850.917V281.847Z" fill="#FBE134"/>
<path d="M850.917 263.106H831.131V281.847H850.917V263.106Z" fill="#FBE134"/>
<path d="M850.917 244.364H831.131V263.106H850.917V244.364Z" fill="#FAC134"/>
<path d="M850.917 225.606H831.131V244.347H850.917V225.606Z" fill="#270F6B"/>
<path d="M850.917 206.864H831.131V225.606H850.917V206.864Z" fill="#270F6B"/>
<path d="M850.917 188.122H831.131V206.864H850.917V188.122Z" fill="#FBE134"/>
<path d="M850.917 169.364H831.131V188.106H850.917V169.364Z" fill="#270F6B"/>
<path d="M850.917 150.622H831.131V169.364H850.917V150.622Z" fill="#270F6B"/>
<path d="M850.917 131.88H831.131V150.622H850.917V131.88Z" fill="#270F6B"/>
<path d="M831.131 563.039H811.345V581.781H831.131V563.039Z" fill="#270F6B"/>
<path d="M831.131 544.298H811.345V563.039H831.131V544.298Z" fill="#ECA227"/>
<path d="M831.131 525.556H811.345V544.298H831.131V525.556Z" fill="#FAC134"/>
<path d="M831.131 506.798H811.345V525.54H831.131V506.798Z" fill="#FAC134"/>
<path d="M831.131 488.056H811.345V506.798H831.131V488.056Z" fill="#270F6B"/>
<path d="M831.131 469.314H811.345V488.056H831.131V469.314Z" fill="#270F6B"/>
<path d="M831.131 450.572H811.345V469.314H831.131V450.572Z" fill="#ECA227"/>
<path d="M831.131 431.814H811.345V450.556H831.131V431.814Z" fill="#FAC134"/>
<path d="M831.131 413.073H811.345V431.814H831.131V413.073Z" fill="#FAC134"/>
<path d="M831.131 394.331H811.345V413.073H831.131V394.331Z" fill="#FAC134"/>
<path d="M831.131 375.573H811.345V394.314H831.131V375.573Z" fill="#FAC134"/>
<path d="M831.131 356.831H811.345V375.573H831.131V356.831Z" fill="#FBE134"/>
<path d="M831.131 338.089H811.345V356.831H831.131V338.089Z" fill="#FBE134"/>
<path d="M831.131 319.347H811.345V338.089H831.131V319.347Z" fill="#FBE134"/>
<path d="M831.131 300.589H811.345V319.331H831.131V300.589Z" fill="#FBE134"/>
<path d="M831.131 281.847H811.345V300.589H831.131V281.847Z" fill="#FBE134"/>
<path d="M831.131 263.106H811.345V281.847H831.131V263.106Z" fill="#FBE134"/>
<path d="M831.131 244.364H811.345V263.106H831.131V244.364Z" fill="#FBE134"/>
<path d="M831.131 225.606H811.345V244.347H831.131V225.606Z" fill="#FAC134"/>
<path d="M831.131 206.864H811.345V225.606H831.131V206.864Z" fill="#270F6B"/>
<path d="M831.131 188.122H811.345V206.864H831.131V188.122Z" fill="#FBE134"/>
<path d="M831.131 169.364H811.345V188.106H831.131V169.364Z" fill="#FAC134"/>
<path d="M831.131 150.622H811.345V169.364H831.131V150.622Z" fill="#ECA227"/>
<path d="M831.131 131.88H811.345V150.622H831.131V131.88Z" fill="#270F6B"/>
<path d="M811.345 563.039H791.559V581.781H811.345V563.039Z" fill="#270F6B"/>
<path d="M811.345 544.298H791.559V563.039H811.345V544.298Z" fill="#ECA227"/>
<path d="M811.345 525.556H791.559V544.298H811.345V525.556Z" fill="#FAC134"/>
<path d="M811.345 506.798H791.559V525.54H811.345V506.798Z" fill="#270F6B"/>
<path d="M811.345 488.056H791.559V506.798H811.345V488.056Z" fill="#270F6B"/>
<path d="M811.345 469.314H791.559V488.056H811.345V469.314Z" fill="#ECA227"/>
<path d="M811.345 450.572H791.559V469.314H811.345V450.572Z" fill="#FAC134"/>
<path d="M811.345 431.814H791.559V450.556H811.345V431.814Z" fill="#FAC134"/>
<path d="M811.345 413.073H791.559V431.814H811.345V413.073Z" fill="#FAC134"/>
<path d="M811.345 394.331H791.559V413.073H811.345V394.331Z" fill="#FAC134"/>
<path d="M811.345 375.573H791.559V394.314H811.345V375.573Z" fill="#FAC134"/>
<path d="M811.345 356.831H791.559V375.573H811.345V356.831Z" fill="#FBE134"/>
<path d="M811.345 338.089H791.559V356.831H811.345V338.089Z" fill="#FBE134"/>
<path d="M811.345 319.347H791.559V338.089H811.345V319.347Z" fill="#FCF293"/>
<path d="M811.345 300.589H791.559V319.331H811.345V300.589Z" fill="#FCF293"/>
<path d="M811.345 281.847H791.559V300.589H811.345V281.847Z" fill="#FCF293"/>
<path d="M811.345 263.106H791.559V281.847H811.345V263.106Z" fill="#FBE134"/>
<path d="M811.345 244.364H791.559V263.106H811.345V244.364Z" fill="#FBE134"/>
<path d="M811.345 225.606H791.559V244.347H811.345V225.606Z" fill="#FAC134"/>
<path d="M811.345 206.864H791.559V225.606H811.345V206.864Z" fill="#270F6B"/>
<path d="M811.345 188.122H791.559V206.864H811.345V188.122Z" fill="#270F6B"/>
<path d="M811.345 169.364H791.559V188.106H811.345V169.364Z" fill="#FAC134"/>
<path d="M811.345 150.622H791.559V169.364H811.345V150.622Z" fill="#FAC134"/>
<path d="M811.345 131.88H791.559V150.622H811.345V131.88Z" fill="#270F6B"/>
<path d="M811.344 113.122H791.559V131.864H811.344V113.122Z" fill="#270F6B"/>
<path d="M791.559 581.781H771.773V600.523H791.559L791.559 581.781Z" fill="#270F6B"/>
<path d="M791.559 563.039H771.773V581.781H791.559V563.039Z" fill="#270F6B"/>
<path d="M791.559 544.298H771.773V563.039H791.559V544.298Z" fill="#ECA227"/>
<path d="M791.559 525.556H771.773V544.298H791.559V525.556Z" fill="#FAC134"/>
<path d="M791.559 506.798H771.773V525.54H791.559V506.798Z" fill="#270F6B"/>
<path d="M791.559 488.056H771.773V506.798H791.559V488.056Z" fill="#ECA227"/>
<path d="M791.559 469.314H771.773V488.056H791.559V469.314Z" fill="#FAC134"/>
<path d="M791.559 450.572H771.773V469.314H791.559V450.572Z" fill="#FAC134"/>
<path d="M791.559 431.814H771.773V450.556H791.559V431.814Z" fill="#FAC134"/>
<path d="M791.559 413.073H771.773V431.814H791.559V413.073Z" fill="#FAC134"/>
<path d="M791.559 394.331H771.773V413.073H791.559V394.331Z" fill="#FAC134"/>
<path d="M791.559 375.573H771.773V394.314H791.559V375.573Z" fill="#FBE134"/>
<path d="M791.559 356.831H771.773V375.573H791.559V356.831Z" fill="#FBE134"/>
<path d="M791.559 338.089H771.773V356.831H791.559V338.089Z" fill="#FCF293"/>
<path d="M791.559 319.347H771.773V338.089H791.559V319.347Z" fill="#FCF293"/>
<path d="M791.559 300.589H771.773V319.331H791.559V300.589Z" fill="#FCF293"/>
<path d="M791.559 281.847H771.773V300.589H791.559V281.847Z" fill="#FCF293"/>
<path d="M791.559 263.106H771.773V281.847H791.559V263.106Z" fill="#FCF293"/>
<path d="M791.559 244.364H771.773V263.106H791.559V244.364Z" fill="#FBE134"/>
<path d="M791.559 225.606H771.773V244.347H791.559V225.606Z" fill="#FAC134"/>
<path d="M791.559 206.864H771.773V225.606H791.559V206.864Z" fill="#FAC134"/>
<path d="M791.559 188.122H771.773V206.864H791.559V188.122Z" fill="#270F6B"/>
<path d="M791.559 169.364H771.773V188.106H791.559V169.364Z" fill="#FAC134"/>
<path d="M791.559 150.622H771.773V169.364H791.559V150.622Z" fill="#FAC134"/>
<path d="M791.559 131.88H771.773V150.622H791.559V131.88Z" fill="#ECA227"/>
<path d="M791.559 113.122H771.773V131.864H791.559V113.122Z" fill="#270F6B"/>
<path d="M791.559 94.3805H771.773V113.122H791.559L791.559 94.3805Z" fill="#270F6B"/>
<path d="M771.773 581.781H751.987V600.523H771.773V581.781Z" fill="#270F6B"/>
<path d="M771.773 563.039H751.987V581.781H771.773V563.039Z" fill="#ECA227"/>
<path d="M771.773 544.298H751.987V563.039H771.773V544.298Z" fill="#ECA227"/>
<path d="M771.773 525.556H751.987V544.298H771.773V525.556Z" fill="#270F6B"/>
<path d="M771.773 506.798H751.987V525.54H771.773V506.798Z" fill="#270F6B"/>
<path d="M771.773 488.056H751.987V506.798H771.773V488.056Z" fill="#ECA227"/>
<path d="M771.773 469.314H751.987V488.056H771.773V469.314Z" fill="#FAC134"/>
<path d="M771.773 450.572H751.987V469.314H771.773V450.572Z" fill="#FAC134"/>
<path d="M771.773 431.814H751.987V450.556H771.773V431.814Z" fill="#FAC134"/>
<path d="M771.773 413.073H751.987V431.814H771.773V413.073Z" fill="#FAC134"/>
<path d="M771.773 394.331H751.987V413.073H771.773V394.331Z" fill="#FAC134"/>
<path d="M771.773 375.573H751.987V394.314H771.773V375.573Z" fill="#FBE134"/>
<path d="M771.773 356.831H751.987V375.573H771.773V356.831Z" fill="#FBE134"/>
<path d="M771.773 338.089H751.987V356.831H771.773V338.089Z" fill="#FCF293"/>
<path d="M771.773 319.347H751.987V338.089H771.773V319.347Z" fill="#FCF293"/>
<path d="M771.773 300.589H751.987V319.331H771.773V300.589Z" fill="#FCF293"/>
<path d="M771.773 281.847H751.987V300.589H771.773V281.847Z" fill="#FCF293"/>
<path d="M771.773 263.106H751.987V281.847H771.773V263.106Z" fill="#FCF293"/>
<path d="M771.773 244.364H751.987V263.106H771.773V244.364Z" fill="#FBE134"/>
<path d="M771.773 225.606H751.987V244.347H771.773V225.606Z" fill="#FAC134"/>
<path d="M771.773 206.864H751.987V225.606H771.773V206.864Z" fill="#270F6B"/>
<path d="M771.773 188.122H751.987V206.864H771.773V188.122Z" fill="#270F6B"/>
<path d="M771.773 169.364H751.987V188.106H771.773V169.364Z" fill="#FAC134"/>
<path d="M771.773 150.622H751.987V169.364H771.773V150.622Z" fill="#FAC134"/>
<path d="M771.773 131.88H751.987V150.622H771.773V131.88Z" fill="#ECA227"/>
<path d="M771.773 113.122H751.987V131.864H771.773V113.122Z" fill="#270F6B"/>
<path d="M771.773 94.3805H751.987V113.122H771.773V94.3805Z" fill="#270F6B"/>
<path d="M751.971 600.539H732.185V619.281H751.971V600.539Z" fill="#270F6B"/>
<path d="M751.971 581.781H732.185V600.523H751.971V581.781Z" fill="#270F6B"/>
<path d="M751.971 563.039H732.185V581.781H751.971V563.039Z" fill="#ECA227"/>
<path d="M751.971 544.298H732.185V563.039H751.971V544.298Z" fill="#FAC134"/>
<path d="M751.971 525.556H732.185V544.298H751.971V525.556Z" fill="#270F6B"/>
<path d="M751.971 506.798H732.185V525.54H751.971V506.798Z" fill="#ECA227"/>
<path d="M751.971 488.056H732.185V506.798H751.971V488.056Z" fill="#FAC134"/>
<path d="M751.971 469.314H732.185V488.056H751.971V469.314Z" fill="#FAC134"/>
<path d="M751.971 450.572H732.185V469.314H751.971V450.572Z" fill="#FAC134"/>
<path d="M751.971 431.814H732.185V450.556H751.971V431.814Z" fill="#FAC134"/>
<path d="M751.971 413.073H732.185V431.814H751.971V413.073Z" fill="#FAC134"/>
<path d="M751.971 394.331H732.185V413.073H751.971V394.331Z" fill="#FAC134"/>
<path d="M751.971 375.573H732.185V394.314H751.971V375.573Z" fill="#FBE134"/>
<path d="M751.971 356.831H732.185V375.573H751.971V356.831Z" fill="#FBE134"/>
<path d="M751.971 338.089H732.185V356.831H751.971V338.089Z" fill="#FCF293"/>
<path d="M751.971 319.347H732.185V338.089H751.971V319.347Z" fill="#FCF293"/>
<path d="M751.971 300.589H732.185V319.331H751.971V300.589Z" fill="#FCF293"/>
<path d="M751.971 281.847H732.185V300.589H751.971V281.847Z" fill="#FCF293"/>
<path d="M751.971 263.106H732.185V281.847H751.971V263.106Z" fill="#FCF293"/>
<path d="M751.971 244.364H732.185V263.106H751.971V244.364Z" fill="#FBE134"/>
<path d="M751.971 225.606H732.185V244.347H751.971V225.606Z" fill="#FBE134"/>
<path d="M751.971 206.864H732.185V225.606H751.971V206.864Z" fill="#270F6B"/>
<path d="M751.971 188.122H732.185V206.864H751.971V188.122Z" fill="#FBE134"/>
<path d="M751.971 169.364H732.185V188.106H751.971V169.364Z" fill="#FBE134"/>
<path d="M751.971 150.622H732.185V169.364H751.971V150.622Z" fill="#FAC134"/>
<path d="M751.971 131.88H732.185V150.622H751.971V131.88Z" fill="#ECA227"/>
<path d="M751.971 113.122H732.185V131.864H751.971V113.122Z" fill="#270F6B"/>
<path d="M751.971 94.3805H732.185V113.122H751.971V94.3805Z" fill="#FBE134"/>
<path d="M751.971 75.6387H732.185V94.3805H751.971V75.6387Z" fill="#270F6B"/>
<path d="M732.185 600.539H712.4V619.281H732.185V600.539Z" fill="#270F6B"/>
<path d="M732.185 581.781H712.4V600.523H732.185V581.781Z" fill="#ECA227"/>
<path d="M732.185 563.039H712.4V581.781H732.185V563.039Z" fill="#ECA227"/>
<path d="M732.185 544.298H712.4V563.039H732.185V544.298Z" fill="#FAC134"/>
<path d="M732.185 525.556H712.4V544.298H732.185V525.556Z" fill="#270F6B"/>
<path d="M732.185 506.798H712.4V525.54H732.185V506.798Z" fill="#ECA227"/>
<path d="M732.185 488.056H712.4V506.798H732.185V488.056Z" fill="#FAC134"/>
<path d="M732.185 469.314H712.4V488.056H732.185V469.314Z" fill="#FAC134"/>
<path d="M732.185 450.572H712.4V469.314H732.185V450.572Z" fill="#FAC134"/>
<path d="M732.185 431.814H712.4V450.556H732.185V431.814Z" fill="#FAC134"/>
<path d="M732.185 413.073H712.4V431.814H732.185V413.073Z" fill="#FAC134"/>
<path d="M732.185 394.331H712.4V413.073H732.185V394.331Z" fill="#FBE134"/>
<path d="M732.185 375.573H712.4V394.314H732.185V375.573Z" fill="#FBE134"/>
<path d="M732.185 356.831H712.4V375.573H732.185V356.831Z" fill="#FCF293"/>
<path d="M732.185 338.089H712.4V356.831H732.185V338.089Z" fill="#FCF293"/>
<path d="M732.185 319.347H712.4V338.089H732.185V319.347Z" fill="#FCF293"/>
<path d="M732.185 300.589H712.4V319.331H732.185V300.589Z" fill="#FCF293"/>
<path d="M732.185 281.847H712.4V300.589H732.185V281.847Z" fill="#FCF293"/>
<path d="M732.185 263.106H712.4V281.847H732.185V263.106Z" fill="#FCF293"/>
<path d="M732.185 244.364H712.4V263.106H732.185V244.364Z" fill="#FBE134"/>
<path d="M732.185 225.606H712.4V244.347H732.185V225.606Z" fill="#FAC134"/>
<path d="M732.185 206.864H712.4V225.606H732.185V206.864Z" fill="#270F6B"/>
<path d="M732.185 188.122H712.4V206.864H732.185V188.122Z" fill="#FBE134"/>
<path d="M732.185 169.364H712.4V188.106H732.185V169.364Z" fill="#FAC134"/>
<path d="M732.185 150.622H712.4V169.364H732.185V150.622Z" fill="#FAC134"/>
<path d="M732.185 131.88H712.4V150.622H732.185V131.88Z" fill="#ECA227"/>
<path d="M732.185 113.122H712.4V131.864H732.185V113.122Z" fill="#270F6B"/>
<path d="M732.185 94.3805H712.4V113.122H732.185V94.3805Z" fill="#FBE134"/>
<path d="M732.185 75.6387H712.4V94.3805H732.185V75.6387Z" fill="#270F6B"/>
<path d="M732.185 56.897H712.4V75.6387H732.185L732.185 56.897Z" fill="#270F6B"/>
<path d="M712.4 619.281L692.614 619.281V638.023H712.4L712.4 619.281Z" fill="#270F6B"/>
<path d="M712.4 600.539H692.614V619.281L712.4 619.281V600.539Z" fill="#270F6B"/>
<path d="M712.4 581.781H692.614V600.523H712.4V581.781Z" fill="#ECA227"/>
<path d="M712.4 563.039H692.614V581.781H712.4V563.039Z" fill="#FAC134"/>
<path d="M712.4 544.298H692.614V563.039H712.4V544.298Z" fill="#270F6B"/>
<path d="M712.4 525.556H692.614V544.298H712.4V525.556Z" fill="#270F6B"/>
<path d="M712.4 506.798H692.614V525.54H712.4V506.798Z" fill="#ECA227"/>
<path d="M712.4 488.056H692.614V506.798H712.4V488.056Z" fill="#FAC134"/>
<path d="M712.4 469.314H692.614V488.056H712.4V469.314Z" fill="#FAC134"/>
<path d="M712.4 450.572H692.614V469.314H712.4V450.572Z" fill="#FAC134"/>
<path d="M712.4 431.814H692.614V450.556H712.4V431.814Z" fill="#FAC134"/>
<path d="M712.4 413.073H692.614V431.814H712.4V413.073Z" fill="#FAC134"/>
<path d="M712.4 394.331H692.614V413.073H712.4V394.331Z" fill="#FBE134"/>
<path d="M712.4 375.573H692.614V394.314H712.4V375.573Z" fill="#FBE134"/>
<path d="M712.4 356.831H692.614V375.573H712.4V356.831Z" fill="#FCF293"/>
<path d="M712.4 338.089H692.614V356.831H712.4V338.089Z" fill="#FCF293"/>
<path d="M712.4 319.347H692.614V338.089H712.4V319.347Z" fill="#FCF293"/>
<path d="M712.4 300.589H692.614V319.331H712.4V300.589Z" fill="#FCF293"/>
<path d="M712.4 281.847H692.614V300.589H712.4V281.847Z" fill="#FCF293"/>
<path d="M712.4 263.106H692.614V281.847H712.4V263.106Z" fill="#FBE134"/>
<path d="M712.4 244.364H692.614V263.106H712.4V244.364Z" fill="#FAC134"/>
<path d="M712.4 225.606H692.614V244.347H712.4V225.606Z" fill="#270F6B"/>
<path d="M712.4 206.864H692.614V225.606H712.4V206.864Z" fill="#270F6B"/>
<path d="M712.4 188.122H692.614V206.864H712.4V188.122Z" fill="#FBE134"/>
<path d="M712.4 169.364H692.614V188.106H712.4V169.364Z" fill="#FAC134"/>
<path d="M712.4 150.622H692.614V169.364H712.4V150.622Z" fill="#FAC134"/>
<path d="M712.4 131.88H692.614V150.622H712.4V131.88Z" fill="#270F6B"/>
<path d="M712.4 113.122H692.614V131.864H712.4V113.122Z" fill="#270F6B"/>
<path d="M712.4 94.3805H692.614V113.122H712.4V94.3805Z" fill="#FBE134"/>
<path d="M712.4 75.6387H692.614V94.3805H712.4V75.6387Z" fill="#FBE134"/>
<path d="M712.4 56.897H692.614V75.6387H712.4V56.897Z" fill="#270F6B"/>
<path d="M712.4 38.1388H692.614V56.8806H712.4V38.1388Z" fill="#270F6B"/>
<path d="M692.614 619.281H672.828V638.023H692.614V619.281Z" fill="#270F6B"/>
<path d="M692.614 600.539H672.828V619.281H692.614V600.539Z" fill="#ECA227"/>
<path d="M692.614 581.781H672.828V600.523H692.614V581.781Z" fill="#ECA227"/>
<path d="M692.614 563.039H672.828V581.781H692.614V563.039Z" fill="#FAC134"/>
<path d="M692.614 544.298H672.828V563.039H692.614V544.298Z" fill="#270F6B"/>
<path d="M692.614 525.556H672.828V544.298H692.614V525.556Z" fill="#ECA227"/>
<path d="M692.614 506.798H672.828V525.54H692.614V506.798Z" fill="#ECA227"/>
<path d="M692.614 488.056H672.828V506.798H692.614V488.056Z" fill="#FAC134"/>
<path d="M692.614 469.314H672.828V488.056H692.614V469.314Z" fill="#FAC134"/>
<path d="M692.614 450.572H672.828V469.314H692.614V450.572Z" fill="#FAC134"/>
<path d="M692.614 431.814H672.828V450.556H692.614V431.814Z" fill="#FAC134"/>
<path d="M692.614 413.073H672.828V431.814H692.614V413.073Z" fill="#FAC134"/>
<path d="M692.614 394.331H672.828V413.073H692.614V394.331Z" fill="#FBE134"/>
<path d="M692.614 375.573H672.828V394.314H692.614V375.573Z" fill="#FCF293"/>
<path d="M692.614 356.831H672.828V375.573H692.614V356.831Z" fill="#FCF293"/>
<path d="M692.614 338.089H672.828V356.831H692.614V338.089Z" fill="#FCF293"/>
<path d="M692.614 319.347H672.828V338.089H692.614V319.347Z" fill="#FCF293"/>
<path d="M692.614 300.589H672.828V319.331H692.614V300.589Z" fill="#FCF293"/>
<path d="M692.614 281.847H672.828V300.589H692.614V281.847Z" fill="#FCF293"/>
<path d="M692.614 263.106H672.828V281.847H692.614V263.106Z" fill="#FBE134"/>
<path d="M692.614 244.364H672.828V263.106H692.614V244.364Z" fill="#FAC134"/>
<path d="M692.614 225.606H672.828V244.347H692.614V225.606Z" fill="#270F6B"/>
<path d="M692.614 206.864H672.828V225.606H692.614V206.864Z" fill="#FBE134"/>
<path d="M692.614 188.122H672.828V206.864H692.614V188.122Z" fill="#FBE134"/>
<path d="M692.614 169.364H672.828V188.106H692.614V169.364Z" fill="#FAC134"/>
<path d="M692.614 150.622H672.828V169.364H692.614V150.622Z" fill="#FAC134"/>
<path d="M692.614 131.88H672.828V150.622H692.614V131.88Z" fill="#270F6B"/>
<path d="M692.614 113.122H672.828V131.864H692.614V113.122Z" fill="#FAC134"/>
<path d="M692.614 94.3805H672.828V113.122H692.614V94.3805Z" fill="#FAC134"/>
<path d="M692.614 75.6387H672.828V94.3805H692.614V75.6387Z" fill="#FBE134"/>
<path d="M692.614 56.897H672.828V75.6387H692.614V56.897Z" fill="#ECA227"/>
<path d="M692.614 38.1388H672.828V56.8806H692.614V38.1388Z" fill="#270F6B"/>
<path d="M672.828 619.281H653.042V638.023H672.828V619.281Z" fill="#270F6B"/>
<path d="M672.828 600.539H653.042V619.281H672.828V600.539Z" fill="#ECA227"/>
<path d="M672.828 581.781H653.042V600.523H672.828V581.781Z" fill="#FAC134"/>
<path d="M672.828 563.039H653.042V581.781H672.828V563.039Z" fill="#FAC134"/>
<path d="M672.828 544.298H653.042V563.039H672.828V544.298Z" fill="#270F6B"/>
<path d="M672.828 525.556H653.042V544.298H672.828V525.556Z" fill="#ECA227"/>
<path d="M672.828 506.798H653.042V525.54H672.828V506.798Z" fill="#FAC134"/>
<path d="M672.828 488.056H653.042V506.798H672.828V488.056Z" fill="#FAC134"/>
<path d="M672.828 469.314H653.042V488.056H672.828V469.314Z" fill="#FAC134"/>
<path d="M672.828 450.572H653.042V469.314H672.828V450.572Z" fill="#FAC134"/>
<path d="M672.828 431.814H653.042V450.556H672.828V431.814Z" fill="#FAC134"/>
<path d="M672.828 413.073H653.042V431.814H672.828V413.073Z" fill="#FBE134"/>
<path d="M672.828 394.331H653.042V413.073H672.828V394.331Z" fill="#FBE134"/>
<path d="M672.828 375.573H653.042V394.314H672.828V375.573Z" fill="#FCF293"/>
<path d="M672.828 356.831H653.042V375.573H672.828V356.831Z" fill="#FCF293"/>
<path d="M672.828 338.089H653.042V356.831H672.828V338.089Z" fill="#FCF293"/>
<path d="M672.828 319.347H653.042V338.089H672.828V319.347Z" fill="#FCF293"/>
<path d="M672.828 300.589H653.042V319.331H672.828V300.589Z" fill="#FCF293"/>
<path d="M672.828 281.847H653.042V300.589H672.828V281.847Z" fill="#FBE134"/>
<path d="M672.828 263.106H653.042V281.847H672.828V263.106Z" fill="#FAC134"/>
<path d="M672.828 244.364H653.042V263.106H672.828V244.364Z" fill="#FAC134"/>
<path d="M672.828 225.606H653.042V244.347H672.828V225.606Z" fill="#270F6B"/>
<path d="M672.828 206.864H653.042V225.606H672.828V206.864Z" fill="#FBE134"/>
<path d="M672.828 188.122H653.042V206.864H672.828V188.122Z" fill="#FAC134"/>
<path d="M672.828 169.364H653.042V188.106H672.828V169.364Z" fill="#FAC134"/>
<path d="M672.828 150.622H653.042V169.364H672.828V150.622Z" fill="#270F6B"/>
<path d="M672.828 131.88H653.042V150.622H672.828V131.88Z" fill="#270F6B"/>
<path d="M672.828 113.122H653.042V131.864H672.828V113.122Z" fill="#FAC134"/>
<path d="M672.828 94.3805H653.042V113.122H672.828V94.3805Z" fill="#FBE134"/>
<path d="M672.828 75.6387H653.042V94.3805H672.828V75.6387Z" fill="#FBE134"/>
<path d="M672.828 56.897H653.042V75.6387H672.828V56.897Z" fill="#ECA227"/>
<path d="M672.828 38.1388H653.042V56.8806H672.828V38.1388Z" fill="#270F6B"/>
<path d="M653.026 638.023H633.241V656.765H653.026V638.023Z" fill="#270F6B"/>
<path d="M653.026 619.281H633.241V638.023H653.026V619.281Z" fill="#270F6B"/>
<path d="M653.026 600.539H633.241V619.281H653.026V600.539Z" fill="#ECA227"/>
<path d="M653.026 581.781H633.241V600.523H653.026V581.781Z" fill="#FAC134"/>
<path d="M653.026 563.039H633.241V581.781H653.026V563.039Z" fill="#FAC134"/>
<path d="M653.026 544.298H633.241V563.039H653.026V544.298Z" fill="#270F6B"/>
<path d="M653.026 525.556H633.241V544.298H653.026V525.556Z" fill="#ECA227"/>
<path d="M653.026 506.798H633.241V525.54H653.026V506.798Z" fill="#FAC134"/>
<path d="M653.026 488.056H633.241V506.798H653.026V488.056Z" fill="#FAC134"/>
<path d="M653.026 469.314H633.241V488.056H653.026V469.314Z" fill="#FAC134"/>
<path d="M653.026 450.572H633.241V469.314H653.026V450.572Z" fill="#FAC134"/>
<path d="M653.026 431.814H633.241V450.556H653.026V431.814Z" fill="#FAC134"/>
<path d="M653.026 413.073H633.241V431.814H653.026V413.073Z" fill="#FBE134"/>
<path d="M653.026 394.331H633.241V413.073H653.026V394.331Z" fill="#FBE134"/>
<path d="M653.026 375.573H633.241V394.314H653.026V375.573Z" fill="#FCF293"/>
<path d="M653.026 356.831H633.241V375.573H653.026V356.831Z" fill="#FCF293"/>
<path d="M653.026 338.089H633.241V356.831H653.026V338.089Z" fill="#FCF293"/>
<path d="M653.026 319.347H633.241V338.089H653.026V319.347Z" fill="#FCF293"/>
<path d="M653.026 300.589H633.241V319.331H653.026V300.589Z" fill="#FBE134"/>
<path d="M653.026 281.847H633.241V300.589H653.026V281.847Z" fill="#FAC134"/>
<path d="M653.026 263.106H633.241V281.847H653.026V263.106Z" fill="#FAC134"/>
<path d="M653.026 244.364H633.241V263.106H653.026V244.364Z" fill="#270F6B"/>
<path d="M653.026 225.606H633.241V244.347H653.026V225.606Z" fill="#270F6B"/>
<path d="M653.026 206.864H633.241V225.606H653.026V206.864Z" fill="#FAC134"/>
<path d="M653.026 188.122H633.241V206.864H653.026V188.122Z" fill="#FAC134"/>
<path d="M653.026 169.364H633.241V188.106H653.026V169.364Z" fill="#FAC134"/>
<path d="M653.026 150.622H633.241V169.364H653.026V150.622Z" fill="#270F6B"/>
<path d="M653.026 131.88H633.241V150.622H653.026V131.88Z" fill="#FAC134"/>
<path d="M653.026 113.122H633.241V131.864H653.026V113.122Z" fill="#FAC134"/>
<path d="M653.026 94.3805H633.241V113.122H653.026V94.3805Z" fill="#FBE134"/>
<path d="M653.026 75.6387H633.241V94.3805H653.026V75.6387Z" fill="#270F6B"/>
<path d="M653.026 56.897H633.241V75.6387H653.026V56.897Z" fill="#ECA227"/>
<path d="M653.026 38.1388H633.241V56.8806H653.026V38.1388Z" fill="#270F6B"/>
<path d="M653.026 19.397H633.241V38.1388H653.026V19.397Z" fill="#270F6B"/>
<path d="M633.241 638.023H613.455V656.765H633.241V638.023Z" fill="#270F6B"/>
<path d="M633.241 619.281H613.455V638.023H633.241V619.281Z" fill="#ECA227"/>
<path d="M633.241 600.539H613.455V619.281H633.241V600.539Z" fill="#ECA227"/>
<path d="M633.241 581.781H613.455V600.523H633.241V581.781Z" fill="#FAC134"/>
<path d="M633.241 563.039H613.455V581.781H633.241V563.039Z" fill="#FAC134"/>
<path d="M633.241 544.298H613.455V563.039H633.241V544.298Z" fill="#270F6B"/>
<path d="M633.241 525.556H613.455V544.298H633.241V525.556Z" fill="#ECA227"/>
<path d="M633.241 506.798H613.455V525.54H633.241V506.798Z" fill="#FAC134"/>
<path d="M633.241 488.056H613.455V506.798H633.241V488.056Z" fill="#FAC134"/>
<path d="M633.241 469.314H613.455V488.056H633.241V469.314Z" fill="#FAC134"/>
<path d="M633.241 450.572H613.455V469.314H633.241V450.572Z" fill="#FAC134"/>
<path d="M633.241 431.814H613.455V450.556H633.241V431.814Z" fill="#FBE134"/>
<path d="M633.241 413.073H613.455V431.814H633.241V413.073Z" fill="#FBE134"/>
<path d="M633.241 394.331H613.455V413.073H633.241V394.331Z" fill="#FBE134"/>
<path d="M633.241 375.573H613.455V394.314H633.241V375.573Z" fill="#FCF293"/>
<path d="M633.241 356.831H613.455V375.573H633.241V356.831Z" fill="#FBE134"/>
<path d="M633.241 338.089H613.455V356.831H633.241V338.089Z" fill="#FBE134"/>
<path d="M633.241 319.347H613.455V338.089H633.241V319.347Z" fill="#FBE134"/>
<path d="M633.241 300.589H613.455V319.331H633.241V300.589Z" fill="#FBE134"/>
<path d="M633.241 281.847H613.455V300.589H633.241V281.847Z" fill="#FAC134"/>
<path d="M633.241 263.106H613.455V281.847H633.241V263.106Z" fill="#270F6B"/>
<path d="M633.241 244.364H613.455V263.106H633.241V244.364Z" fill="#270F6B"/>
<path d="M633.241 225.606H613.455V244.347H633.241V225.606Z" fill="#FBE134"/>
<path d="M633.241 206.864H613.455V225.606H633.241V206.864Z" fill="#FAC134"/>
<path d="M633.241 188.122H613.455V206.864H633.241V188.122Z" fill="#FAC134"/>
<path d="M633.241 169.364H613.455V188.106H633.241V169.364Z" fill="#270F6B"/>
<path d="M633.241 150.622H613.455V169.364H633.241V150.622Z" fill="#270F6B"/>
<path d="M633.241 131.88H613.455V150.622H633.241V131.88Z" fill="#FAC134"/>
<path d="M633.241 113.122H613.455V131.864H633.241V113.122Z" fill="#FAC134"/>
<path d="M633.241 94.3805H613.455V113.122H633.241V94.3805Z" fill="#FBE134"/>
<path d="M633.241 75.6387H613.455V94.3805H633.241V75.6387Z" fill="#270F6B"/>
<path d="M633.241 56.897H613.455V75.6387H633.241V56.897Z" fill="#ECA227"/>
<path d="M633.241 38.1388H613.455V56.8806H633.241V38.1388Z" fill="#FAC134"/>
<path d="M633.241 19.397H613.455V38.1388H633.241V19.397Z" fill="#270F6B"/>
<path d="M613.455 638.023H593.669V656.765H613.455V638.023Z" fill="#270F6B"/>
<path d="M613.455 619.281H593.669V638.023H613.455V619.281Z" fill="#ECA227"/>
<path d="M613.455 600.539H593.669V619.281H613.455V600.539Z" fill="#FAC134"/>
<path d="M613.455 581.781H593.669V600.523H613.455V581.781Z" fill="#FAC134"/>
<path d="M613.455 563.039H593.669V581.781H613.455V563.039Z" fill="#ECA227"/>
<path d="M613.455 544.298H593.669V563.039H613.455V544.298Z" fill="#270F6B"/>
<path d="M613.455 525.556H593.669V544.298H613.455V525.556Z" fill="#ECA227"/>
<path d="M613.455 506.798H593.669V525.54H613.455V506.798Z" fill="#FAC134"/>
<path d="M613.455 488.056H593.669V506.798H613.455V488.056Z" fill="#FAC134"/>
<path d="M613.455 469.314H593.669V488.056H613.455V469.314Z" fill="#FAC134"/>
<path d="M613.455 450.572H593.669V469.314H613.455V450.572Z" fill="#FAC134"/>
<path d="M613.455 431.814H593.669V450.556H613.455V431.814Z" fill="#FBE134"/>
<path d="M613.455 413.073H593.669V431.814H613.455V413.073Z" fill="#FBE134"/>
<path d="M613.455 394.331H593.669V413.073H613.455V394.331Z" fill="#FCF293"/>
<path d="M613.455 375.573H593.669V394.314H613.455V375.573Z" fill="#FCF293"/>
<path d="M613.455 356.831H593.669V375.573H613.455V356.831Z" fill="#FBE134"/>
<path d="M613.455 338.089H593.669V356.831H613.455V338.089Z" fill="#FBE134"/>
<path d="M613.455 319.347H593.669V338.089H613.455V319.347Z" fill="#FAC134"/>
<path d="M613.455 300.589H593.669V319.331H613.455V300.589Z" fill="#FAC134"/>
<path d="M613.455 281.847H593.669V300.589H613.455V281.847Z" fill="#FAC134"/>
<path d="M613.455 263.106H593.669V281.847H613.455V263.106Z" fill="#270F6B"/>
<path d="M613.455 244.364H593.669V263.106H613.455V244.364Z" fill="#FBE134"/>
<path d="M613.455 225.606H593.669V244.347H613.455V225.606Z" fill="#FBE134"/>
<path d="M613.455 206.864H593.669V225.606H613.455V206.864Z" fill="#FAC134"/>
<path d="M613.455 188.122H593.669V206.864H613.455V188.122Z" fill="#FAC134"/>
<path d="M613.455 169.364H593.669V188.106H613.455V169.364Z" fill="#270F6B"/>
<path d="M613.455 150.622H593.669V169.364H613.455V150.622Z" fill="#FAC134"/>
<path d="M613.455 131.88H593.669V150.622H613.455V131.88Z" fill="#FAC134"/>
<path d="M613.455 113.122H593.669V131.864H613.455V113.122Z" fill="#FAC134"/>
<path d="M613.455 94.3805H593.669V113.122H613.455V94.3805Z" fill="#FBE134"/>
<path d="M613.455 75.6387H593.669V94.3805H613.455V75.6387Z" fill="#270F6B"/>
<path d="M613.455 56.897H593.669V75.6387H613.455V56.897Z" fill="#FAC134"/>
<path d="M613.455 38.1388H593.669V56.8806H613.455V38.1388Z" fill="#FAC134"/>
<path d="M613.455 19.397H593.669V38.1388H613.455V19.397Z" fill="#270F6B"/>
<path d="M593.669 656.781H573.883V675.523H593.669V656.781Z" fill="#270F6B"/>
<path d="M593.669 638.023H573.883V656.765H593.669V638.023Z" fill="#270F6B"/>
<path d="M593.669 619.281H573.883V638.023H593.669V619.281Z" fill="#ECA227"/>
<path d="M593.669 600.539H573.883V619.281H593.669V600.539Z" fill="#ECA227"/>
<path d="M593.669 581.781H573.883V600.523H593.669V581.781Z" fill="#FAC134"/>
<path d="M593.669 563.039H573.883V581.781H593.669V563.039Z" fill="#ECA227"/>
<path d="M593.669 544.298H573.883V563.039H593.669V544.298Z" fill="#270F6B"/>
<path d="M593.669 525.556H573.883V544.298H593.669V525.556Z" fill="#ECA227"/>
<path d="M593.669 506.798H573.883V525.54H593.669V506.798Z" fill="#FAC134"/>
<path d="M593.669 488.056H573.883V506.798H593.669V488.056Z" fill="#FAC134"/>
<path d="M593.669 469.314H573.883V488.056H593.669V469.314Z" fill="#FAC134"/>
<path d="M593.669 450.572H573.883V469.314H593.669V450.572Z" fill="#FBE134"/>
<path d="M593.669 431.814H573.883V450.556H593.669V431.814Z" fill="#FBE134"/>
<path d="M593.669 413.073H573.883V431.814H593.669V413.073Z" fill="#FBE134"/>
<path d="M593.669 394.331H573.883V413.073H593.669V394.331Z" fill="#FCF293"/>
<path d="M593.669 375.573H573.883V394.314H593.669V375.573Z" fill="#FBE134"/>
<path d="M593.669 356.831H573.883V375.573H593.669V356.831Z" fill="#FBE134"/>
<path d="M593.669 338.089H573.883V356.831H593.669V338.089Z" fill="#FAC134"/>
<path d="M593.669 319.347H573.883V338.089H593.669V319.347Z" fill="#FAC134"/>
<path d="M593.669 300.589H573.883V319.331H593.669V300.589Z" fill="#FAC134"/>
<path d="M593.669 281.847H573.883V300.589H593.669V281.847Z" fill="#270F6B"/>
<path d="M593.669 263.106H573.883V281.847H593.669V263.106Z" fill="#270F6B"/>
<path d="M593.669 244.364H573.883V263.106H593.669V244.364Z" fill="#FBE134"/>
<path d="M593.669 225.606H573.883V244.347H593.669V225.606Z" fill="#FAC134"/>
<path d="M593.669 206.864H573.883V225.606H593.669V206.864Z" fill="#FAC134"/>
<path d="M593.669 188.122H573.883V206.864H593.669V188.122Z" fill="#FAC134"/>
<path d="M593.669 169.364H573.883V188.106H593.669V169.364Z" fill="#270F6B"/>
<path d="M593.669 150.622H573.883V169.364H593.669V150.622Z" fill="#FAC134"/>
<path d="M593.669 131.88H573.883V150.622H593.669V131.88Z" fill="#FAC134"/>
<path d="M593.669 113.122H573.883V131.864H593.669V113.122Z" fill="#FBE134"/>
<path d="M593.669 94.3805H573.883V113.122H593.669V94.3805Z" fill="#FBE134"/>
<path d="M593.669 75.6387H573.883V94.3805H593.669V75.6387Z" fill="#270F6B"/>
<path d="M593.669 56.897H573.883V75.6387H593.669V56.897Z" fill="#FAC134"/>
<path d="M593.669 38.1388H573.883V56.8806H593.669V38.1388Z" fill="#FAC134"/>
<path d="M593.669 19.397H573.883V38.1388H593.669V19.397Z" fill="#270F6B"/>
<path d="M593.669 0.655212H573.883V19.397H593.669L593.669 0.655212Z" fill="#270F6B"/>
<path d="M573.883 656.781H554.097V675.523H573.883V656.781Z" fill="#270F6B"/>
<path d="M573.883 638.023H554.097V656.765H573.883V638.023Z" fill="#ECA227"/>
<path d="M573.883 619.281H554.097V638.023H573.883V619.281Z" fill="#ECA227"/>
<path d="M573.883 600.539H554.097V619.281H573.883V600.539Z" fill="#FAC134"/>
<path d="M573.883 581.781H554.097V600.523H573.883V581.781Z" fill="#FAC134"/>
<path d="M573.883 563.039H554.097V581.781H573.883V563.039Z" fill="#ECA227"/>
<path d="M573.883 544.298H554.097V563.039H573.883V544.298Z" fill="#270F6B"/>
<path d="M573.883 525.556H554.097V544.298H573.883V525.556Z" fill="#ECA227"/>
<path d="M573.883 506.798H554.097V525.54H573.883V506.798Z" fill="#FAC134"/>
<path d="M573.883 488.056H554.097V506.798H573.883V488.056Z" fill="#FAC134"/>
<path d="M573.883 469.314H554.097V488.056H573.883V469.314Z" fill="#FAC134"/>
<path d="M573.883 450.572H554.097V469.314H573.883V450.572Z" fill="#FBE134"/>
<path d="M573.883 431.814H554.097V450.556H573.883V431.814Z" fill="#FBE134"/>
<path d="M573.883 413.073H554.097V431.814H573.883V413.073Z" fill="#FBE134"/>
<path d="M573.883 394.331H554.097V413.073H573.883V394.331Z" fill="#FBE134"/>
<path d="M573.883 375.573H554.097V394.314H573.883V375.573Z" fill="#FAC134"/>
<path d="M573.883 356.831H554.097V375.573H573.883V356.831Z" fill="#FAC134"/>
<path d="M573.883 338.089H554.097V356.831H573.883V338.089Z" fill="#FAC134"/>
<path d="M573.883 319.347H554.097V338.089H573.883V319.347Z" fill="#270F6B"/>
<path d="M573.883 300.589H554.097V319.331H573.883V300.589Z" fill="#270F6B"/>
<path d="M573.883 281.847H554.097V300.589H573.883V281.847Z" fill="#FBE134"/>
<path d="M573.883 263.106H554.097V281.847H573.883V263.106Z" fill="#FBE134"/>
<path d="M573.883 244.364H554.097V263.106H573.883V244.364Z" fill="#FBE134"/>
<path d="M573.883 225.606H554.097V244.347H573.883V225.606Z" fill="#FAC134"/>
<path d="M573.883 206.864H554.097V225.606H573.883V206.864Z" fill="#FAC134"/>
<path d="M573.883 188.122H554.097V206.864H573.883V188.122Z" fill="#270F6B"/>
<path d="M573.883 169.364H554.097V188.106H573.883V169.364Z" fill="#270F6B"/>
<path d="M573.883 150.622H554.097V169.364H573.883V150.622Z" fill="#FAC134"/>
<path d="M573.883 131.88H554.097V150.622H573.883V131.88Z" fill="#FAC134"/>
<path d="M573.883 113.122H554.097V131.864H573.883V113.122Z" fill="#FBE134"/>
<path d="M573.883 94.3805H554.097V113.122H573.883V94.3805Z" fill="#270F6B"/>
<path d="M573.883 75.6387H554.097V94.3805H573.883V75.6387Z" fill="#270F6B"/>
<path d="M573.883 56.897H554.097V75.6387H573.883V56.897Z" fill="#FAC134"/>
<path d="M573.883 38.1388H554.097V56.8806H573.883V38.1388Z" fill="#270F6B"/>
<path d="M573.883 19.397H554.097V38.1388H573.883V19.397Z" fill="#ECA227"/>
<path d="M573.883 0.655212H554.097V19.397H573.883V0.655212Z" fill="#270F6B"/>
<path d="M554.081 656.781H534.296V675.523H554.081V656.781Z" fill="#270F6B"/>
<path d="M554.081 638.023H534.296V656.765H554.081V638.023Z" fill="#ECA227"/>
<path d="M554.081 619.281H534.296V638.023H554.081V619.281Z" fill="#ECA227"/>
<path d="M554.081 600.539H534.296V619.281H554.081V600.539Z" fill="#FAC134"/>
<path d="M554.081 581.781H534.296V600.523H554.081V581.781Z" fill="#FAC134"/>
<path d="M554.081 563.039H534.296V581.781H554.081V563.039Z" fill="#ECA227"/>
<path d="M554.081 544.298H534.296V563.039H554.081V544.298Z" fill="#270F6B"/>
<path d="M554.081 525.556H534.296V544.298H554.081V525.556Z" fill="#ECA227"/>
<path d="M554.081 506.798H534.296V525.54H554.081V506.798Z" fill="#FAC134"/>
<path d="M554.081 488.056H534.296V506.798H554.081V488.056Z" fill="#FAC134"/>
<path d="M554.081 469.314H534.296V488.056H554.081V469.314Z" fill="#FBE134"/>
<path d="M554.081 450.572H534.296V469.314H554.081V450.572Z" fill="#FBE134"/>
<path d="M554.081 431.814H534.296V450.556H554.081V431.814Z" fill="#FBE134"/>
<path d="M554.081 413.073H534.296V431.814H554.081V413.073Z" fill="#FBE134"/>
<path d="M554.081 394.331H534.296V413.073H554.081V394.331Z" fill="#FAC134"/>
<path d="M554.081 375.573H534.296V394.314H554.081V375.573Z" fill="#FAC134"/>
<path d="M554.081 356.831H534.296V375.573H554.081V356.831Z" fill="#FAC134"/>
<path d="M554.081 338.089H534.296V356.831H554.081V338.089Z" fill="#270F6B"/>
<path d="M554.081 319.347H534.296V338.089H554.081V319.347Z" fill="#270F6B"/>
<path d="M554.081 300.589H534.296V319.331H554.081V300.589Z" fill="#FAC134"/>
<path d="M554.081 281.847H534.296V300.589H554.081V281.847Z" fill="#FBE134"/>
<path d="M554.081 263.106H534.296V281.847H554.081V263.106Z" fill="#FAC134"/>
<path d="M554.081 244.364H534.296V263.106H554.081V244.364Z" fill="#FAC134"/>
<path d="M554.081 225.606H534.296V244.347H554.081V225.606Z" fill="#FAC134"/>
<path d="M554.081 206.864H534.296V225.606H554.081V206.864Z" fill="#270F6B"/>
<path d="M554.081 188.122H534.296V206.864H554.081V188.122Z" fill="#270F6B"/>
<path d="M554.081 169.364H534.296V188.106H554.081V169.364Z" fill="#FAC134"/>
<path d="M554.081 150.622H534.296V169.364H554.081V150.622Z" fill="#FAC134"/>
<path d="M554.081 131.88H534.296V150.622H554.081V131.88Z" fill="#FAC134"/>
<path d="M554.081 113.122H534.296V131.864H554.081V113.122Z" fill="#FBE134"/>
<path d="M554.081 94.3805H534.296V113.122H554.081V94.3805Z" fill="#270F6B"/>
<path d="M554.081 75.6387H534.296V94.3805H554.081V75.6387Z" fill="#FAC134"/>
<path d="M554.081 56.897H534.296V75.6387H554.081V56.897Z" fill="#FBE134"/>
<path d="M554.081 38.1388H534.296V56.8806H554.081V38.1388Z" fill="#270F6B"/>
<path d="M554.081 19.397H534.296V38.1388H554.081V19.397Z" fill="#FAC134"/>
<path d="M554.081 0.655212H534.296V19.397H554.081V0.655212Z" fill="#270F6B"/>
<path d="M534.296 675.523L514.51 675.523V694.265H534.296L534.296 675.523Z" fill="#270F6B"/>
<path d="M534.296 656.781H514.51V675.523L534.296 675.523V656.781Z" fill="#270F6B"/>
<path d="M534.296 638.023H514.51V656.765H534.296V638.023Z" fill="#ECA227"/>
<path d="M534.296 619.281H514.51V638.023H534.296V619.281Z" fill="#ECA227"/>
<path d="M534.296 600.539H514.51V619.281H534.296V600.539Z" fill="#FAC134"/>
<path d="M534.296 581.781H514.51V600.523H534.296V581.781Z" fill="#FAC134"/>
<path d="M534.296 563.039H514.51V581.781H534.296V563.039Z" fill="#ECA227"/>
<path d="M534.296 544.298H514.51V563.039H534.296V544.298Z" fill="#270F6B"/>
<path d="M534.296 525.556H514.51V544.298H534.296V525.556Z" fill="#ECA227"/>
<path d="M534.296 506.798H514.51V525.54H534.296V506.798Z" fill="#FAC134"/>
<path d="M534.296 488.056H514.51V506.798H534.296V488.056Z" fill="#FAC134"/>
<path d="M534.296 469.314H514.51V488.056H534.296V469.314Z" fill="#FBE134"/>
<path d="M534.296 450.572H514.51V469.314H534.296V450.572Z" fill="#FBE134"/>
<path d="M534.296 431.814H514.51V450.556H534.296V431.814Z" fill="#FBE134"/>
<path d="M534.296 413.073H514.51V431.814H534.296V413.073Z" fill="#FBE134"/>
<path d="M534.296 394.331H514.51V413.073H534.296V394.331Z" fill="#FAC134"/>
<path d="M534.296 375.573H514.51V394.314H534.296V375.573Z" fill="#270F6B"/>
<path d="M534.296 356.831H514.51V375.573H534.296V356.831Z" fill="#270F6B"/>
<path d="M534.296 338.089H514.51V356.831H534.296V338.089Z" fill="#270F6B"/>
<path d="M534.296 319.347H514.51V338.089H534.296V319.347Z" fill="#FAC134"/>
<path d="M534.296 300.589H514.51V319.331H534.296V300.589Z" fill="#FAC134"/>
<path d="M534.296 281.847H514.51V300.589H534.296V281.847Z" fill="#FAC134"/>
<path d="M534.296 263.106H514.51V281.847H534.296V263.106Z" fill="#FAC134"/>
<path d="M534.296 244.364H514.51V263.106H534.296V244.364Z" fill="#FAC134"/>
<path d="M534.296 225.606H514.51V244.347H534.296V225.606Z" fill="#270F6B"/>
<path d="M534.296 206.864H514.51V225.606H534.296V206.864Z" fill="#270F6B"/>
<path d="M534.296 188.122H514.51V206.864H534.296V188.122Z" fill="#FAC134"/>
<path d="M534.296 169.364H514.51V188.106H534.296V169.364Z" fill="#FAC134"/>
<path d="M534.296 150.622H514.51V169.364H534.296V150.622Z" fill="#FAC134"/>
<path d="M534.296 131.88H514.51V150.622H534.296V131.88Z" fill="#FAC134"/>
<path d="M534.296 113.122H514.51V131.864H534.296V113.122Z" fill="#270F6B"/>
<path d="M534.296 94.3805H514.51V113.122H534.296V94.3805Z" fill="#270F6B"/>
<path d="M534.296 75.6387H514.51V94.3805H534.296V75.6387Z" fill="#FAC134"/>
<path d="M534.296 56.897H514.51V75.6387H534.296V56.897Z" fill="#FBE134"/>
<path d="M534.296 38.1388H514.51V56.8806H534.296V38.1388Z" fill="#270F6B"/>
<path d="M534.296 19.397H514.51V38.1388H534.296V19.397Z" fill="#FAC134"/>
<path d="M534.296 0.655212H514.51V19.397H534.296V0.655212Z" fill="#270F6B"/>
<path d="M514.51 675.523H494.724V694.265H514.51V675.523Z" fill="#270F6B"/>
<path d="M514.51 656.781H494.724V675.523H514.51V656.781Z" fill="#ECA227"/>
<path d="M514.51 638.023H494.724V656.765H514.51V638.023Z" fill="#ECA227"/>
<path d="M514.51 619.281H494.724V638.023H514.51V619.281Z" fill="#FAC134"/>
<path d="M514.51 600.539H494.724V619.281H514.51V600.539Z" fill="#FBE134"/>
<path d="M514.51 581.781H494.724V600.523H514.51V581.781Z" fill="#FBE134"/>
<path d="M514.51 563.039H494.724V581.781H514.51V563.039Z" fill="#FAC134"/>
<path d="M514.51 544.298H494.724V563.039H514.51V544.298Z" fill="#270F6B"/>
<path d="M514.51 525.556H494.724V544.298H514.51V525.556Z" fill="#ECA227"/>
<path d="M514.51 506.798H494.724V525.54H514.51V506.798Z" fill="#FAC134"/>
<path d="M514.51 488.056H494.724V506.798H514.51V488.056Z" fill="#FAC134"/>
<path d="M514.51 469.314H494.724V488.056H514.51V469.314Z" fill="#FBE134"/>
<path d="M514.51 450.572H494.724V469.314H514.51V450.572Z" fill="#FCF293"/>
<path d="M514.51 431.814H494.724V450.556H514.51V431.814Z" fill="#FBE134"/>
<path d="M514.51 413.073H494.724V431.814H514.51V413.073Z" fill="#FAC134"/>
<path d="M514.51 394.331H494.724V413.073H514.51V394.331Z" fill="#FAC134"/>
<path d="M514.51 375.573H494.724V394.314H514.51V375.573Z" fill="#270F6B"/>
<path d="M514.51 356.831H494.724V375.573H514.51V356.831Z" fill="#FAC134"/>
<path d="M514.51 338.089H494.724V356.831H514.51V338.089Z" fill="#FAC134"/>
<path d="M514.51 319.347H494.724V338.089H514.51V319.347Z" fill="#FAC134"/>
<path d="M514.51 300.589H494.724V319.331H514.51V300.589Z" fill="#FAC134"/>
<path d="M514.51 281.847H494.724V300.589H514.51V281.847Z" fill="#FAC134"/>
<path d="M514.51 263.106H494.724V281.847H514.51V263.106Z" fill="#FAC134"/>
<path d="M514.51 244.364H494.724V263.106H514.51V244.364Z" fill="#270F6B"/>
<path d="M514.51 225.606H494.724V244.347H514.51V225.606Z" fill="#270F6B"/>
<path d="M514.51 206.864H494.724V225.606H514.51V206.864Z" fill="#FAC134"/>
<path d="M514.51 188.122H494.724V206.864H514.51V188.122Z" fill="#FAC134"/>
<path d="M514.51 169.364H494.724V188.106H514.51V169.364Z" fill="#FAC134"/>
<path d="M514.51 150.622H494.724V169.364H514.51V150.622Z" fill="#FAC134"/>
<path d="M514.51 131.88H494.724V150.622H514.51V131.88Z" fill="#FBE134"/>
<path d="M514.51 113.122H494.724V131.864H514.51V113.122Z" fill="#270F6B"/>
<path d="M514.51 94.3805H494.724V113.122H514.51V94.3805Z" fill="#FAC134"/>
<path d="M514.51 75.6387H494.724V94.3805H514.51V75.6387Z" fill="#FAC134"/>
<path d="M514.51 56.897H494.724V75.6387H514.51V56.897Z" fill="#270F6B"/>
<path d="M514.51 38.1388H494.724V56.8806H514.51V38.1388Z" fill="#FAC134"/>
<path d="M514.51 19.397H494.724V38.1388H514.51V19.397Z" fill="#ECA227"/>
<path d="M514.51 0.655212H494.724V19.397H514.51V0.655212Z" fill="#270F6B"/>
<path d="M494.724 675.523H474.938V694.265H494.724V675.523Z" fill="#270F6B"/>
<path d="M494.724 656.781H474.938V675.523H494.724V656.781Z" fill="#ECA227"/>
<path d="M494.724 638.023H474.938V656.765H494.724V638.023Z" fill="#ECA227"/>
<path d="M494.724 619.281H474.938V638.023H494.724V619.281Z" fill="#FAC134"/>
<path d="M494.724 600.539H474.938V619.281H494.724V600.539Z" fill="#FBE134"/>
<path d="M494.724 581.781H474.938V600.523H494.724V581.781Z" fill="#FBE134"/>
<path d="M494.724 563.039H474.938V581.781H494.724V563.039Z" fill="#FAC134"/>
<path d="M494.724 544.298H474.938V563.039H494.724V544.298Z" fill="#270F6B"/>
<path d="M494.724 525.556H474.938V544.298H494.724V525.556Z" fill="#ECA227"/>
<path d="M494.724 506.798H474.938V525.54H494.724V506.798Z" fill="#FAC134"/>
<path d="M494.724 488.056H474.938V506.798H494.724V488.056Z" fill="#FBE134"/>
<path d="M494.724 469.314H474.938V488.056H494.724V469.314Z" fill="#FCF293"/>
<path d="M494.724 450.572H474.938V469.314H494.724V450.572Z" fill="#FCF293"/>
<path d="M494.724 431.814H474.938V450.556H494.724V431.814Z" fill="#FBE134"/>
<path d="M494.724 413.073H474.938V431.814H494.724V413.073Z" fill="#FAC134"/>
<path d="M494.724 394.331H474.938V413.073H494.724V394.331Z" fill="#FAC134"/>
<path d="M494.724 375.573H474.938V394.314H494.724V375.573Z" fill="#270F6B"/>
<path d="M494.724 356.831H474.938V375.573H494.724V356.831Z" fill="#FAC134"/>
<path d="M494.724 338.089H474.938V356.831H494.724V338.089Z" fill="#FAC134"/>
<path d="M494.724 319.347H474.938V338.089H494.724V319.347Z" fill="#FAC134"/>
<path d="M494.724 300.589H474.938V319.331H494.724V300.589Z" fill="#FAC134"/>
<path d="M494.724 281.847H474.938V300.589H494.724V281.847Z" fill="#FAC134"/>
<path d="M494.724 263.106H474.938V281.847H494.724V263.106Z" fill="#270F6B"/>
<path d="M494.724 244.364H474.938V263.106H494.724V244.364Z" fill="#270F6B"/>
<path d="M494.724 225.606H474.938V244.347H494.724V225.606Z" fill="#FAC134"/>
<path d="M494.724 206.864H474.938V225.606H494.724V206.864Z" fill="#FAC134"/>
<path d="M494.724 188.122H474.938V206.864H494.724V188.122Z" fill="#FAC134"/>
<path d="M494.724 169.364H474.938V188.106H494.724V169.364Z" fill="#FAC134"/>
<path d="M494.724 150.622H474.938V169.364H494.724V150.622Z" fill="#FBE134"/>
<path d="M494.724 131.88H474.938V150.622H494.724V131.88Z" fill="#270F6B"/>
<path d="M494.724 113.122H474.938V131.864H494.724V113.122Z" fill="#270F6B"/>
<path d="M494.724 94.3805H474.938V113.122H494.724V94.3805Z" fill="#FAC134"/>
<path d="M494.724 75.6387H474.938V94.3805H494.724V75.6387Z" fill="#FBE134"/>
<path d="M494.724 56.897H474.938V75.6387H494.724V56.897Z" fill="#270F6B"/>
<path d="M494.724 38.1388H474.938V56.8806H494.724V38.1388Z" fill="#FAC134"/>
<path d="M494.724 19.397H474.938V38.1388H494.724V19.397Z" fill="#270F6B"/>
<path d="M474.938 675.523H455.153V694.265H474.938V675.523Z" fill="#270F6B"/>
<path d="M474.938 656.781H455.153V675.523H474.938V656.781Z" fill="#ECA227"/>
<path d="M474.938 638.023H455.153V656.765H474.938V638.023Z" fill="#ECA227"/>
<path d="M474.938 619.281H455.153V638.023H474.938V619.281Z" fill="#FAC134"/>
<path d="M474.938 600.539H455.153V619.281H474.938V600.539Z" fill="#FBE134"/>
<path d="M474.938 581.781H455.153V600.523H474.938V581.781Z" fill="#FBE134"/>
<path d="M474.938 563.039H455.153V581.781H474.938V563.039Z" fill="#270F6B"/>
<path d="M474.938 544.298H455.153V563.039H474.938V544.298Z" fill="#270F6B"/>
<path d="M474.938 525.556H455.153V544.298H474.938V525.556Z" fill="#ECA227"/>
<path d="M474.938 506.798H455.153V525.54H474.938V506.798Z" fill="#FAC134"/>
<path d="M474.938 488.056H455.153V506.798H474.938V488.056Z" fill="#FBE134"/>
<path d="M474.938 469.314H455.153V488.056H474.938V469.314Z" fill="#FCF293"/>
<path d="M474.938 450.572H455.153V469.314H474.938V450.572Z" fill="#FCF293"/>
<path d="M474.938 431.814H455.153V450.556H474.938V431.814Z" fill="#FBE134"/>
<path d="M474.938 413.073H455.153V431.814H474.938V413.073Z" fill="#FAC134"/>
<path d="M474.938 394.331H455.153V413.073H474.938V394.331Z" fill="#FAC134"/>
<path d="M474.938 375.573H455.153V394.314H474.938V375.573Z" fill="#270F6B"/>
<path d="M474.938 356.831H455.153V375.573H474.938V356.831Z" fill="#FAC134"/>
<path d="M474.938 338.089H455.153V356.831H474.938V338.089Z" fill="#FAC134"/>
<path d="M474.938 319.347H455.153V338.089H474.938V319.347Z" fill="#FAC134"/>
<path d="M474.938 300.589H455.153V319.331H474.938V300.589Z" fill="#270F6B"/>
<path d="M474.938 281.847H455.153V300.589H474.938V281.847Z" fill="#270F6B"/>
<path d="M474.938 263.106H455.153V281.847H474.938V263.106Z" fill="#FAC134"/>
<path d="M474.938 244.364H455.153V263.106H474.938V244.364Z" fill="#FAC134"/>
<path d="M474.938 225.606H455.153V244.347H474.938V225.606Z" fill="#FAC134"/>
<path d="M474.938 206.864H455.153V225.606H474.938V206.864Z" fill="#FAC134"/>
<path d="M474.938 188.122H455.153V206.864H474.938V188.122Z" fill="#FAC134"/>
<path d="M474.938 169.364H455.153V188.106H474.938V169.364Z" fill="#FAC134"/>
<path d="M474.938 150.622H455.153V169.364H474.938V150.622Z" fill="#270F6B"/>
<path d="M474.938 131.88H455.153V150.622H474.938V131.88Z" fill="#270F6B"/>
<path d="M474.938 113.122H455.153V131.864H474.938V113.122Z" fill="#FAC134"/>
<path d="M474.938 94.3805H455.153V113.122H474.938V94.3805Z" fill="#FAC134"/>
<path d="M474.938 75.6387H455.153V94.3805H474.938V75.6387Z" fill="#FBE134"/>
<path d="M474.938 56.897H455.153V75.6387H474.938V56.897Z" fill="#270F6B"/>
<path d="M474.938 38.1388H455.153V56.8806H474.938V38.1388Z" fill="#ECA227"/>
<path d="M474.938 19.397H455.153V38.1388H474.938V19.397Z" fill="#270F6B"/>
<path d="M455.136 675.523H435.351V694.265H455.136V675.523Z" fill="#270F6B"/>
<path d="M455.136 656.781H435.351V675.523H455.136V656.781Z" fill="#ECA227"/>
<path d="M455.136 638.023H435.351V656.765H455.136V638.023Z" fill="#FAC134"/>
<path d="M455.136 619.281H435.351V638.023H455.136V619.281Z" fill="#FBE134"/>
<path d="M455.136 600.539H435.351V619.281H455.136V600.539Z" fill="#FBE134"/>
<path d="M455.136 581.781H435.351V600.523H455.136V581.781Z" fill="#FAC134"/>
<path d="M455.136 563.039H435.351V581.781H455.136V563.039Z" fill="#270F6B"/>
<path d="M455.136 544.298H435.351V563.039H455.136V544.298Z" fill="#ECA227"/>
<path d="M455.136 525.556H435.351V544.298H455.136V525.556Z" fill="#ECA227"/>
<path d="M455.136 506.798H435.351V525.54H455.136V506.798Z" fill="#FAC134"/>
<path d="M455.136 488.056H435.351V506.798H455.136V488.056Z" fill="#FBE134"/>
<path d="M455.136 469.314H435.351V488.056H455.136V469.314Z" fill="#FCF293"/>
<path d="M455.136 450.572H435.351V469.314H455.136V450.572Z" fill="#FCF293"/>
<path d="M455.136 431.814H435.351V450.556H455.136V431.814Z" fill="#FBE134"/>
<path d="M455.136 413.073H435.351V431.814H455.136V413.073Z" fill="#FBE134"/>
<path d="M455.136 394.331H435.351V413.073H455.136V394.331Z" fill="#FAC134"/>
<path d="M455.136 375.573H435.351V394.314H455.136V375.573Z" fill="#270F6B"/>
<path d="M455.136 356.831H435.351V375.573H455.136V356.831Z" fill="#270F6B"/>
<path d="M455.136 338.089H435.351V356.831H455.136V338.089Z" fill="#270F6B"/>
<path d="M455.136 319.347H435.351V338.089H455.136V319.347Z" fill="#270F6B"/>
<path d="M455.136 300.589H435.351V319.331H455.136V300.589Z" fill="#270F6B"/>
<path d="M455.136 281.847H435.351V300.589H455.136V281.847Z" fill="#FAC134"/>
<path d="M455.136 263.106H435.351V281.847H455.136V263.106Z" fill="#FAC134"/>
<path d="M455.136 244.364H435.351V263.106H455.136V244.364Z" fill="#FAC134"/>
<path d="M455.136 225.606H435.351V244.347H455.136V225.606Z" fill="#FAC134"/>
<path d="M455.136 206.864H435.351V225.606H455.136V206.864Z" fill="#FAC134"/>
<path d="M455.136 188.122H435.351V206.864H455.136V188.122Z" fill="#FAC134"/>
<path d="M455.136 169.364H435.351V188.106H455.136V169.364Z" fill="#270F6B"/>
<path d="M455.136 150.622H435.351V169.364H455.136V150.622Z" fill="#270F6B"/>
<path d="M455.136 131.88H435.351V150.622H455.136V131.88Z" fill="#FAC134"/>
<path d="M455.136 113.122H435.351V131.864H455.136V113.122Z" fill="#FAC134"/>
<path d="M455.136 94.3805H435.351V113.122H455.136V94.3805Z" fill="#FAC134"/>
<path d="M455.136 75.6387H435.351V94.3805H455.136V75.6387Z" fill="#270F6B"/>
<path d="M455.136 56.897H435.351V75.6387H455.136V56.897Z" fill="#FAC134"/>
<path d="M455.136 38.1388H435.351V56.8806H455.136V38.1388Z" fill="#ECA227"/>
<path d="M455.136 19.397H435.351V38.1388H455.136V19.397Z" fill="#270F6B"/>
<path d="M435.367 694.265H415.582V713.007H435.367V694.265Z" fill="#270F6B"/>
<path d="M435.367 675.523H415.582V694.265H435.367V675.523Z" fill="#ECA227"/>
<path d="M435.367 656.781H415.582V675.523H435.367V656.781Z" fill="#ECA227"/>
<path d="M435.367 638.023H415.582V656.765H435.367V638.023Z" fill="#FAC134"/>
<path d="M435.367 619.281H415.582V638.023H435.367V619.281Z" fill="#FBE134"/>
<path d="M435.367 600.539H415.582V619.281H435.367V600.539Z" fill="#FBE134"/>
<path d="M435.367 581.781H415.582V600.523H435.367V581.781Z" fill="#FAC134"/>
<path d="M435.367 563.039H415.582V581.781H435.367V563.039Z" fill="#270F6B"/>
<path d="M435.367 544.298H415.582V563.039H435.367V544.298Z" fill="#ECA227"/>
<path d="M435.367 525.556H415.582V544.298H435.367V525.556Z" fill="#ECA227"/>
<path d="M435.367 506.798H415.582V525.54H435.367V506.798Z" fill="#FAC134"/>
<path d="M435.367 488.056H415.582V506.798H435.367V488.056Z" fill="#FBE134"/>
<path d="M435.367 469.314H415.582V488.056H435.367V469.314Z" fill="#FCF293"/>
<path d="M435.367 450.572H415.582V469.314H435.367V450.572Z" fill="#FCF293"/>
<path d="M435.367 431.814H415.582V450.556H435.367V431.814Z" fill="#FBE134"/>
<path d="M435.367 413.073H415.582V431.814H435.367V413.073Z" fill="#FAC134"/>
<path d="M435.367 394.331H415.582V413.073H435.367V394.331Z" fill="#FAC134"/>
<path d="M435.367 375.573H415.582V394.314H435.367V375.573Z" fill="#FAC134"/>
<path d="M435.367 356.831H415.582V375.573H435.367V356.831Z" fill="#270F6B"/>
<path d="M435.367 338.089H415.582V356.831H435.367V338.089Z" fill="#270F6B"/>
<path d="M435.367 319.347H415.582V338.089H435.367V319.347Z" fill="#FAC134"/>
<path d="M435.367 300.589H415.582V319.331H435.367V300.589Z" fill="#FAC134"/>
<path d="M435.367 281.847H415.582V300.589H435.367V281.847Z" fill="#FAC134"/>
<path d="M435.367 263.106H415.582V281.847H435.367V263.106Z" fill="#FAC134"/>
<path d="M435.367 244.364H415.582V263.106H435.367V244.364Z" fill="#FAC134"/>
<path d="M435.367 225.606H415.582V244.347H435.367V225.606Z" fill="#FAC134"/>
<path d="M435.367 206.864H415.582V225.606H435.367V206.864Z" fill="#FBE134"/>
<path d="M435.367 188.122H415.582V206.864H435.367V188.122Z" fill="#270F6B"/>
<path d="M435.367 169.364H415.582V188.106H435.367V169.364Z" fill="#270F6B"/>
<path d="M435.367 150.622H415.582V169.364H435.367V150.622Z" fill="#FAC134"/>
<path d="M435.367 131.88H415.582V150.622H435.367V131.88Z" fill="#FAC134"/>
<path d="M435.367 113.122H415.582V131.864H435.367V113.122Z" fill="#FAC134"/>
<path d="M435.367 94.3805H415.582V113.122H435.367V94.3805Z" fill="#FBE134"/>
<path d="M435.367 75.6387H415.582V94.3805H435.367V75.6387Z" fill="#270F6B"/>
<path d="M435.367 56.897H415.582V75.6387H435.367V56.897Z" fill="#FAC134"/>
<path d="M435.367 38.1388H415.582V56.8806H435.367V38.1388Z" fill="#270F6B"/>
<path d="M415.565 694.265H395.779V713.007H415.565V694.265Z" fill="#270F6B"/>
<path d="M415.565 675.523H395.779V694.265H415.565V675.523Z" fill="#ECA227"/>
<path d="M415.565 656.781H395.779V675.523H415.565V656.781Z" fill="#ECA227"/>
<path d="M415.565 638.023H395.779V656.765H415.565V638.023Z" fill="#FAC134"/>
<path d="M415.565 619.281H395.779V638.023H415.565V619.281Z" fill="#FBE134"/>
<path d="M415.565 600.539H395.779V619.281H415.565V600.539Z" fill="#FBE134"/>
<path d="M415.565 581.781H395.779V600.523H415.565V581.781Z" fill="#FAC134"/>
<path d="M415.565 563.039H395.779V581.781H415.565V563.039Z" fill="#270F6B"/>
<path d="M415.565 544.298H395.779V563.039H415.565V544.298Z" fill="#ECA227"/>
<path d="M415.565 525.556H395.779V544.298H415.565V525.556Z" fill="#ECA227"/>
<path d="M415.565 506.798H395.779V525.54H415.565V506.798Z" fill="#FAC134"/>
<path d="M415.565 488.056H395.779V506.798H415.565V488.056Z" fill="#FBE134"/>
<path d="M415.565 469.314H395.779V488.056H415.565V469.314Z" fill="#FBE134"/>
<path d="M415.565 450.572H395.779V469.314H415.565V450.572Z" fill="#FBE134"/>
<path d="M415.565 431.814H395.779V450.556H415.565V431.814Z" fill="#FBE134"/>
<path d="M415.565 413.073H395.779V431.814H415.565V413.073Z" fill="#FAC134"/>
<path d="M415.565 394.331H395.779V413.073H415.565V394.331Z" fill="#FAC134"/>
<path d="M415.565 375.573H395.779V394.314H415.565V375.573Z" fill="#FAC134"/>
<path d="M415.565 356.831H395.779V375.573H415.565V356.831Z" fill="#FAC134"/>
<path d="M415.565 338.089H395.779V356.831H415.565V338.089Z" fill="#FAC134"/>
<path d="M415.565 319.347H395.779V338.089H415.565V319.347Z" fill="#FAC134"/>
<path d="M415.565 300.589H395.779V319.331H415.565V300.589Z" fill="#FAC134"/>
<path d="M415.565 281.847H395.779V300.589H415.565V281.847Z" fill="#FAC134"/>
<path d="M415.565 263.106H395.779V281.847H415.565V263.106Z" fill="#FAC134"/>
<path d="M415.565 244.364H395.779V263.106H415.565V244.364Z" fill="#FAC134"/>
<path d="M415.565 225.606H395.779V244.347H415.565V225.606Z" fill="#FAC134"/>
<path d="M415.565 206.864H395.779V225.606H415.565V206.864Z" fill="#270F6B"/>
<path d="M415.565 188.122H395.779V206.864H415.565V188.122Z" fill="#270F6B"/>
<path d="M415.565 169.364H395.779V188.106H415.565V169.364Z" fill="#FAC134"/>
<path d="M415.565 150.622H395.779V169.364H415.565V150.622Z" fill="#FAC134"/>
<path d="M415.565 131.88H395.779V150.622H415.565V131.88Z" fill="#FAC134"/>
<path d="M415.565 113.122H395.779V131.864H415.565V113.122Z" fill="#FBE134"/>
<path d="M415.565 94.3805H395.779V113.122H415.565V94.3805Z" fill="#270F6B"/>
<path d="M415.565 75.6387H395.779V94.3805H415.565V75.6387Z" fill="#270F6B"/>
<path d="M415.565 56.897H395.779V75.6387H415.565V56.897Z" fill="#FAC134"/>
<path d="M415.565 38.1388H395.779V56.8806H415.565V38.1388Z" fill="#270F6B"/>
<path d="M395.779 694.265H375.993V713.007H395.779V694.265Z" fill="#270F6B"/>
<path d="M395.779 675.523H375.993V694.265H395.779V675.523Z" fill="#ECA227"/>
<path d="M395.779 656.781H375.993V675.523H395.779V656.781Z" fill="#ECA227"/>
<path d="M395.779 638.023H375.993V656.765H395.779V638.023Z" fill="#FAC134"/>
<path d="M395.779 619.281H375.993V638.023H395.779V619.281Z" fill="#FBE134"/>
<path d="M395.779 600.539H375.993V619.281H395.779V600.539Z" fill="#FBE134"/>
<path d="M395.779 581.781H375.993V600.523H395.779V581.781Z" fill="#FAC134"/>
<path d="M395.779 563.039H375.993V581.781H395.779V563.039Z" fill="#270F6B"/>
<path d="M395.779 544.298H375.993V563.039H395.779V544.298Z" fill="#ECA227"/>
<path d="M395.779 525.556H375.993V544.298H395.779V525.556Z" fill="#ECA227"/>
<path d="M395.779 506.798H375.993V525.54H395.779V506.798Z" fill="#FAC134"/>
<path d="M395.779 488.056H375.993V506.798H395.779V488.056Z" fill="#FAC134"/>
<path d="M395.779 469.314H375.993V488.056H395.779V469.314Z" fill="#FBE134"/>
<path d="M395.779 450.572H375.993V469.314H395.779V450.572Z" fill="#FBE134"/>
<path d="M395.779 431.814H375.993V450.556H395.779V431.814Z" fill="#FAC134"/>
<path d="M395.779 413.073H375.993V431.814H395.779V413.073Z" fill="#FAC134"/>
<path d="M395.779 394.331H375.993V413.073H395.779V394.331Z" fill="#FAC134"/>
<path d="M395.779 375.573H375.993V394.314H395.779V375.573Z" fill="#FAC134"/>
<path d="M395.779 356.831H375.993V375.573H395.779V356.831Z" fill="#FAC134"/>
<path d="M395.779 338.089H375.993V356.831H395.779V338.089Z" fill="#FAC134"/>
<path d="M395.779 319.347H375.993V338.089H395.779V319.347Z" fill="#FAC134"/>
<path d="M395.779 300.589H375.993V319.331H395.779V300.589Z" fill="#FAC134"/>
<path d="M395.779 281.847H375.993V300.589H395.779V281.847Z" fill="#FAC134"/>
<path d="M395.779 263.106H375.993V281.847H395.779V263.106Z" fill="#FAC134"/>
<path d="M395.779 244.364H375.993V263.106H395.779V244.364Z" fill="#FBE134"/>
<path d="M395.779 225.606H375.993V244.347H395.779V225.606Z" fill="#270F6B"/>
<path d="M395.779 206.864H375.993V225.606H395.779V206.864Z" fill="#270F6B"/>
<path d="M395.779 188.122H375.993V206.864H395.779V188.122Z" fill="#FAC134"/>
<path d="M395.779 169.364H375.993V188.106H395.779V169.364Z" fill="#FAC134"/>
<path d="M395.779 150.622H375.993V169.364H395.779V150.622Z" fill="#FAC134"/>
<path d="M395.779 131.88H375.993V150.622H395.779V131.88Z" fill="#FBE134"/>
<path d="M395.779 113.122H375.993V131.864H395.779V113.122Z" fill="#270F6B"/>
<path d="M395.779 94.3805H375.993V113.122H395.779V94.3805Z" fill="#270F6B"/>
<path d="M395.779 75.6387H375.993V94.3805H395.779V75.6387Z" fill="#ECA227"/>
<path d="M395.779 56.897H375.993V75.6387H395.779V56.897Z" fill="#270F6B"/>
<path d="M375.993 694.265H356.208V713.007H375.993V694.265Z" fill="#270F6B"/>
<path d="M375.993 675.523H356.208V694.265H375.993V675.523Z" fill="#ECA227"/>
<path d="M375.993 656.781H356.208V675.523H375.993V656.781Z" fill="#ECA227"/>
<path d="M375.993 638.023H356.208V656.765H375.993V638.023Z" fill="#FAC134"/>
<path d="M375.993 619.281H356.208V638.023H375.993V619.281Z" fill="#FBE134"/>
<path d="M375.993 600.539H356.208V619.281H375.993V600.539Z" fill="#FBE134"/>
<path d="M375.993 581.781H356.208V600.523H375.993V581.781Z" fill="#FAC134"/>
<path d="M375.993 563.039H356.208V581.781H375.993V563.039Z" fill="#270F6B"/>
<path d="M375.993 544.298H356.208V563.039H375.993V544.298Z" fill="#ECA227"/>
<path d="M375.993 525.556H356.208V544.298H375.993V525.556Z" fill="#ECA227"/>
<path d="M375.993 506.798H356.208V525.54H375.993V506.798Z" fill="#FAC134"/>
<path d="M375.993 488.056H356.208V506.798H375.993V488.056Z" fill="#FAC134"/>
<path d="M375.993 469.314H356.208V488.056H375.993V469.314Z" fill="#FAC134"/>
<path d="M375.993 450.572H356.208V469.314H375.993V450.572Z" fill="#FAC134"/>
<path d="M375.993 431.814H356.208V450.556H375.993V431.814Z" fill="#FAC134"/>
<path d="M375.993 413.073H356.208V431.814H375.993V413.073Z" fill="#FAC134"/>
<path d="M375.993 394.331H356.208V413.073H375.993V394.331Z" fill="#FAC134"/>
<path d="M375.993 375.573H356.208V394.314H375.993V375.573Z" fill="#FAC134"/>
<path d="M375.993 356.831H356.208V375.573H375.993V356.831Z" fill="#FAC134"/>
<path d="M375.993 338.089H356.208V356.831H375.993V338.089Z" fill="#FAC134"/>
<path d="M375.993 319.347H356.208V338.089H375.993V319.347Z" fill="#FAC134"/>
<path d="M375.993 300.589H356.208V319.331H375.993V300.589Z" fill="#FAC134"/>
<path d="M375.993 281.847H356.208V300.589H375.993V281.847Z" fill="#FBE134"/>
<path d="M375.993 263.106H356.208V281.847H375.993V263.106Z" fill="#270F6B"/>
<path d="M375.993 244.364H356.208V263.106H375.993V244.364Z" fill="#270F6B"/>
<path d="M375.993 225.606H356.208V244.347H375.993V225.606Z" fill="#270F6B"/>
<path d="M375.993 206.864H356.208V225.606H375.993V206.864Z" fill="#FAC134"/>
<path d="M375.993 188.122H356.208V206.864H375.993V188.122Z" fill="#FAC134"/>
<path d="M375.993 169.364H356.208V188.106H375.993V169.364Z" fill="#FAC134"/>
<path d="M375.993 150.622H356.208V169.364H375.993V150.622Z" fill="#FBE134"/>
<path d="M375.993 131.88H356.208V150.622H375.993V131.88Z" fill="#270F6B"/>
<path d="M375.993 113.122H356.208V131.864H375.993V113.122Z" fill="#270F6B"/>
<path d="M375.993 94.3805H356.208V113.122H375.993V94.3805Z" fill="#ECA227"/>
<path d="M375.993 75.6387H356.208V94.3805H375.993V75.6387Z" fill="#ECA227"/>
<path d="M375.993 56.897H356.208V75.6387H375.993V56.897Z" fill="#270F6B"/>
<path d="M356.191 694.265H336.406V713.007H356.191V694.265Z" fill="#270F6B"/>
<path d="M356.191 675.523H336.406V694.265H356.191V675.523Z" fill="#ECA227"/>
<path d="M356.191 656.781H336.406V675.523H356.191V656.781Z" fill="#FAC134"/>
<path d="M356.191 638.023H336.406V656.765H356.191V638.023Z" fill="#FBE134"/>
<path d="M356.191 619.281H336.406V638.023H356.191V619.281Z" fill="#FBE134"/>
<path d="M356.191 600.539H336.406V619.281H356.191V600.539Z" fill="#FBE134"/>
<path d="M356.191 581.781H336.406V600.523H356.191V581.781Z" fill="#FAC134"/>
<path d="M356.191 563.039H336.406V581.781H356.191V563.039Z" fill="#270F6B"/>
<path d="M356.191 544.298H336.406V563.039H356.191V544.298Z" fill="#ECA227"/>
<path d="M356.191 525.556H336.406V544.298H356.191V525.556Z" fill="#ECA227"/>
<path d="M356.191 506.798H336.406V525.54H356.191V506.798Z" fill="#FAC134"/>
<path d="M356.191 488.056H336.406V506.798H356.191V488.056Z" fill="#FAC134"/>
<path d="M356.191 469.314H336.406V488.056H356.191V469.314Z" fill="#FAC134"/>
<path d="M356.191 450.572H336.406V469.314H356.191V450.572Z" fill="#FAC134"/>
<path d="M356.191 431.814H336.406V450.556H356.191V431.814Z" fill="#FAC134"/>
<path d="M356.191 413.073H336.406V431.814H356.191V413.073Z" fill="#FAC134"/>
<path d="M356.191 394.331H336.406V413.073H356.191V394.331Z" fill="#FAC134"/>
<path d="M356.191 375.573H336.406V394.314H356.191V375.573Z" fill="#FAC134"/>
<path d="M356.191 356.831H336.406V375.573H356.191V356.831Z" fill="#FAC134"/>
<path d="M356.191 338.089H336.406V356.831H356.191V338.089Z" fill="#FAC134"/>
<path d="M356.191 319.347H336.406V338.089H356.191V319.347Z" fill="#FBE134"/>
<path d="M356.191 300.589H336.406V319.331H356.191V300.589Z" fill="#270F6B"/>
<path d="M356.191 281.847H336.406V300.589H356.191V281.847Z" fill="#270F6B"/>
<path d="M356.191 263.106H336.406V281.847H356.191V263.106Z" fill="#270F6B"/>
<path d="M356.191 244.364H336.406V263.106H356.191V244.364Z" fill="#FAC134"/>
<path d="M356.191 225.606H336.406V244.347H356.191V225.606Z" fill="#FAC134"/>
<path d="M356.191 206.864H336.406V225.606H356.191V206.864Z" fill="#FAC134"/>
<path d="M356.191 188.122H336.406V206.864H356.191V188.122Z" fill="#FAC134"/>
<path d="M356.191 169.364H336.406V188.106H356.191V169.364Z" fill="#FAC134"/>
<path d="M356.191 150.622H336.406V169.364H356.191V150.622Z" fill="#270F6B"/>
<path d="M356.191 131.88H336.406V150.622H356.191V131.88Z" fill="#270F6B"/>
<path d="M356.191 113.122H336.406V131.864H356.191V113.122Z" fill="#ECA227"/>
<path d="M356.191 94.3805H336.406V113.122H356.191V94.3805Z" fill="#ECA227"/>
<path d="M356.191 75.6387H336.406V94.3805H356.191V75.6387Z" fill="#270F6B"/>
<path d="M336.406 694.265H316.62V713.007H336.406V694.265Z" fill="#270F6B"/>
<path d="M336.406 675.523H316.62V694.265H336.406V675.523Z" fill="#ECA227"/>
<path d="M336.406 656.781H316.62V675.523H336.406V656.781Z" fill="#FAC134"/>
<path d="M336.406 638.023H316.62V656.765H336.406V638.023Z" fill="#FBE134"/>
<path d="M336.406 619.281H316.62V638.023H336.406V619.281Z" fill="#FBE134"/>
<path d="M336.406 600.539H316.62V619.281H336.406V600.539Z" fill="#FBE134"/>
<path d="M336.406 581.781H316.62V600.523H336.406V581.781Z" fill="#FAC134"/>
<path d="M336.406 563.039H316.62V581.781H336.406V563.039Z" fill="#270F6B"/>
<path d="M336.406 544.298H316.62V563.039H336.406V544.298Z" fill="#270F6B"/>
<path d="M336.406 525.556H316.62V544.298H336.406V525.556Z" fill="#270F6B"/>
<path d="M336.406 506.798H316.62V525.54H336.406V506.798Z" fill="#ECA227"/>
<path d="M336.406 488.056H316.62V506.798H336.406V488.056Z" fill="#ECA227"/>
<path d="M336.406 469.314H316.62V488.056H336.406V469.314Z" fill="#ECA227"/>
<path d="M336.406 450.572H316.62V469.314H336.406V450.572Z" fill="#ECA227"/>
<path d="M336.406 431.814H316.62V450.556H336.406V431.814Z" fill="#ECA227"/>
<path d="M336.406 413.073H316.62V431.814H336.406V413.073Z" fill="#ECA227"/>
<path d="M336.406 394.331H316.62V413.073H336.406V394.331Z" fill="#ECA227"/>
<path d="M336.406 375.573H316.62V394.314H336.406V375.573Z" fill="#270F6B"/>
<path d="M336.406 356.831H316.62V375.573H336.406V356.831Z" fill="#270F6B"/>
<path d="M336.406 338.089H316.62V356.831H336.406V338.089Z" fill="#270F6B"/>
<path d="M336.406 319.347H316.62V338.089H336.406V319.347Z" fill="#270F6B"/>
<path d="M336.406 300.589H316.62V319.331H336.406V300.589Z" fill="#270F6B"/>
<path d="M336.406 281.847H316.62V300.589H336.406V281.847Z" fill="#FAC134"/>
<path d="M336.406 263.106H316.62V281.847H336.406V263.106Z" fill="#FAC134"/>
<path d="M336.406 244.364H316.62V263.106H336.406V244.364Z" fill="#FAC134"/>
<path d="M336.406 225.606H316.62V244.347H336.406V225.606Z" fill="#FAC134"/>
<path d="M336.406 206.864H316.62V225.606H336.406V206.864Z" fill="#FAC134"/>
<path d="M336.406 188.122H316.62V206.864H336.406V188.122Z" fill="#FAC134"/>
<path d="M336.406 169.364H316.62V188.106H336.406V169.364Z" fill="#FBE134"/>
<path d="M336.406 150.622H316.62V169.364H336.406V150.622Z" fill="#270F6B"/>
<path d="M336.406 131.88H316.62V150.622H336.406V131.88Z" fill="#ECA227"/>
<path d="M336.406 113.122H316.62V131.864H336.406V113.122Z" fill="#ECA227"/>
<path d="M336.406 94.3805H316.62V113.122H336.406V94.3805Z" fill="#270F6B"/>
<path d="M336.406 75.6387H316.62V94.3805H336.406V75.6387Z" fill="#270F6B"/>
<path d="M316.62 694.265H296.834V713.007H316.62V694.265Z" fill="#270F6B"/>
<path d="M316.62 675.523H296.834V694.265H316.62V675.523Z" fill="#ECA227"/>
<path d="M316.62 656.781H296.834V675.523H316.62V656.781Z" fill="#FAC134"/>
<path d="M316.62 638.023H296.834V656.765H316.62V638.023Z" fill="#FAC134"/>
<path d="M316.62 619.281H296.834V638.023H316.62V619.281Z" fill="#FBE134"/>
<path d="M316.62 600.539H296.834V619.281H316.62V600.539Z" fill="#FBE134"/>
<path d="M316.62 581.781H296.834V600.523H316.62V581.781Z" fill="#FAC134"/>
<path d="M316.62 563.039H296.834V581.781H316.62V563.039Z" fill="#FAC134"/>
<path d="M316.62 544.298H296.834V563.039H316.62V544.298Z" fill="#270F6B"/>
<path d="M316.62 525.556H296.834V544.298H316.62V525.556Z" fill="#270F6B"/>
<path d="M316.62 506.798H296.834V525.54H316.62V506.798Z" fill="#270F6B"/>
<path d="M316.62 488.056H296.834V506.798H316.62V488.056Z" fill="#270F6B"/>
<path d="M316.62 469.314H296.834V488.056H316.62V469.314Z" fill="#270F6B"/>
<path d="M316.62 450.572H296.834V469.314H316.62V450.572Z" fill="#270F6B"/>
<path d="M316.62 431.814H296.834V450.556H316.62V431.814Z" fill="#270F6B"/>
<path d="M316.62 413.073H296.834V431.814H316.62V413.073Z" fill="#270F6B"/>
<path d="M316.62 394.331H296.834V413.073H316.62V394.331Z" fill="#270F6B"/>
<path d="M316.62 375.573H296.834V394.314H316.62V375.573Z" fill="#270F6B"/>
<path d="M316.62 356.831H296.834V375.573H316.62V356.831Z" fill="#FAC134"/>
<path d="M316.62 338.089H296.834V356.831H316.62V338.089Z" fill="#FAC134"/>
<path d="M316.62 319.347H296.834V338.089H316.62V319.347Z" fill="#FAC134"/>
<path d="M316.62 300.589H296.834V319.331H316.62V300.589Z" fill="#FAC134"/>
<path d="M316.62 281.847H296.834V300.589H316.62V281.847Z" fill="#FAC134"/>
<path d="M316.62 263.106H296.834V281.847H316.62V263.106Z" fill="#FAC134"/>
<path d="M316.62 244.364H296.834V263.106H316.62V244.364Z" fill="#FAC134"/>
<path d="M316.62 225.606H296.834V244.347H316.62V225.606Z" fill="#FAC134"/>
<path d="M316.62 206.864H296.834V225.606H316.62V206.864Z" fill="#FAC134"/>
<path d="M316.62 188.122H296.834V206.864H316.62V188.122Z" fill="#FAC134"/>
<path d="M316.62 169.364H296.834V188.106H316.62V169.364Z" fill="#270F6B"/>
<path d="M316.62 150.622H296.834V169.364H316.62V150.622Z" fill="#ECA227"/>
<path d="M316.62 131.88H296.834V150.622H316.62V131.88Z" fill="#ECA227"/>
<path d="M316.62 113.122H296.834V131.864H316.62V113.122Z" fill="#270F6B"/>
<path d="M316.62 94.3805H296.834V113.122H316.62V94.3805Z" fill="#270F6B"/>
<path d="M296.834 694.265H277.049V713.007H296.834V694.265Z" fill="#270F6B"/>
<path d="M296.834 675.523H277.049V694.265H296.834V675.523Z" fill="#ECA227"/>
<path d="M296.834 656.781H277.049V675.523H296.834V656.781Z" fill="#ECA227"/>
<path d="M296.834 638.023H277.049V656.765H296.834V638.023Z" fill="#FAC134"/>
<path d="M296.834 619.281H277.049V638.023H296.834V619.281Z" fill="#FBE134"/>
<path d="M296.834 600.539H277.049V619.281H296.834V600.539Z" fill="#FBE134"/>
<path d="M296.834 581.781H277.049V600.523H296.834V581.781Z" fill="#FBE134"/>
<path d="M296.834 563.039H277.049V581.781H296.834V563.039Z" fill="#FAC134"/>
<path d="M296.834 544.298H277.049V563.039H296.834V544.298Z" fill="#270F6B"/>
<path d="M296.834 525.556H277.049V544.298H296.834V525.556Z" fill="#ECA227"/>
<path d="M296.834 506.798H277.049V525.54H296.834V506.798Z" fill="#FAC134"/>
<path d="M296.834 488.056H277.049V506.798H296.834V488.056Z" fill="#FAC134"/>
<path d="M296.834 469.314H277.049V488.056H296.834V469.314Z" fill="#FAC134"/>
<path d="M296.834 450.572H277.049V469.314H296.834V450.572Z" fill="#ECA227"/>
<path d="M296.834 431.814H277.049V450.556H296.834V431.814Z" fill="#270F6B"/>
<path d="M296.834 413.073H277.049V431.814H296.834V413.073Z" fill="#270F6B"/>
<path d="M296.834 394.331H277.049V413.073H296.834V394.331Z" fill="#270F6B"/>
<path d="M296.834 375.573H277.049V394.314H296.834V375.573Z" fill="#ECA227"/>
<path d="M296.834 356.831H277.049V375.573H296.834V356.831Z" fill="#FAC134"/>
<path d="M296.834 338.089H277.049V356.831H296.834V338.089Z" fill="#FAC134"/>
<path d="M296.834 319.347H277.049V338.089H296.834V319.347Z" fill="#FAC134"/>
<path d="M296.834 300.589H277.049V319.331H296.834V300.589Z" fill="#FAC134"/>
<path d="M296.834 281.847H277.049V300.589H296.834V281.847Z" fill="#FAC134"/>
<path d="M296.834 263.106H277.049V281.847H296.834V263.106Z" fill="#FAC134"/>
<path d="M296.834 244.364H277.049V263.106H296.834V244.364Z" fill="#FAC134"/>
<path d="M296.834 225.606H277.049V244.347H296.834V225.606Z" fill="#FAC134"/>
<path d="M296.834 206.864H277.049V225.606H296.834V206.864Z" fill="#FBE134"/>
<path d="M296.834 188.122H277.049V206.864H296.834V188.122Z" fill="#270F6B"/>
<path d="M296.834 169.364H277.049V188.106H296.834V169.364Z" fill="#ECA227"/>
<path d="M296.834 150.622H277.049V169.364H296.834V150.622Z" fill="#ECA227"/>
<path d="M296.834 131.88H277.049V150.622H296.834V131.88Z" fill="#270F6B"/>
<path d="M296.834 113.122H277.049V131.864H296.834V113.122Z" fill="#270F6B"/>
<path d="M277.032 694.265H257.247V713.007H277.032V694.265Z" fill="#270F6B"/>
<path d="M277.032 675.523H257.247V694.265H277.032V675.523Z" fill="#ECA227"/>
<path d="M277.032 656.781H257.247V675.523H277.032V656.781Z" fill="#ECA227"/>
<path d="M277.032 638.023H257.247V656.765H277.032V638.023Z" fill="#FAC134"/>
<path d="M277.032 619.281H257.247V638.023H277.032V619.281Z" fill="#FBE134"/>
<path d="M277.032 600.539H257.247V619.281H277.032V600.539Z" fill="#FBE134"/>
<path d="M277.032 581.781H257.247V600.523H277.032V581.781Z" fill="#FBE134"/>
<path d="M277.032 563.039H257.247V581.781H277.032V563.039Z" fill="#FAC134"/>
<path d="M277.032 544.298H257.247V563.039H277.032V544.298Z" fill="#270F6B"/>
<path d="M277.032 525.556H257.247V544.298H277.032V525.556Z" fill="#ECA227"/>
<path d="M277.032 506.798H257.247V525.54H277.032V506.798Z" fill="#FAC134"/>
<path d="M277.032 488.056H257.247V506.798H277.032V488.056Z" fill="#FAC134"/>
<path d="M277.032 469.314H257.247V488.056H277.032V469.314Z" fill="#270F6B"/>
<path d="M277.032 450.572H257.247V469.314H277.032V450.572Z" fill="#270F6B"/>
<path d="M277.032 431.814H257.247V450.556H277.032V431.814Z" fill="#270F6B"/>
<path d="M277.032 413.073H257.247V431.814H277.032V413.073Z" fill="#F26704"/>
<path d="M277.032 394.331H257.247V413.073H277.032V394.331Z" fill="#270F6B"/>
<path d="M277.032 375.573H257.247V394.314H277.032V375.573Z" fill="#270F6B"/>
<path d="M277.032 356.831H257.247V375.573H277.032V356.831Z" fill="#270F6B"/>
<path d="M277.032 338.089H257.247V356.831H277.032V338.089Z" fill="#ECA227"/>
<path d="M277.032 319.347H257.247V338.089H277.032V319.347Z" fill="#FAC134"/>
<path d="M277.032 300.589H257.247V319.331H277.032V300.589Z" fill="#FAC134"/>
<path d="M277.032 281.847H257.247V300.589H277.032V281.847Z" fill="#FAC134"/>
<path d="M277.032 263.106H257.247V281.847H277.032V263.106Z" fill="#FAC134"/>
<path d="M277.032 244.364H257.247V263.106H277.032V244.364Z" fill="#FAC134"/>
<path d="M277.032 225.606H257.247V244.347H277.032V225.606Z" fill="#FBE134"/>
<path d="M277.032 206.864H257.247V225.606H277.032V206.864Z" fill="#270F6B"/>
<path d="M277.032 188.122H257.247V206.864H277.032V188.122Z" fill="#270F6B"/>
<path d="M277.032 169.364H257.247V188.106H277.032V169.364Z" fill="#ECA227"/>
<path d="M277.032 150.622H257.247V169.364H277.032V150.622Z" fill="#ECA227"/>
<path d="M277.032 131.88H257.247V150.622H277.032V131.88Z" fill="#270F6B"/>
<path d="M257.247 694.265H237.461V713.007H257.247V694.265Z" fill="#270F6B"/>
<path d="M257.247 675.523H237.461V694.265H257.247V675.523Z" fill="#270F6B"/>
<path d="M257.247 656.781H237.461V675.523H257.247V656.781Z" fill="#ECA227"/>
<path d="M257.247 638.023H237.461V656.765H257.247V638.023Z" fill="#FAC134"/>
<path d="M257.247 619.281H237.461V638.023H257.247V619.281Z" fill="#FAC134"/>
<path d="M257.247 600.539H237.461V619.281H257.247V600.539Z" fill="#FBE134"/>
<path d="M257.247 581.781H237.461V600.523H257.247V581.781Z" fill="#FBE134"/>
<path d="M257.247 563.039H237.461V581.781H257.247V563.039Z" fill="#FAC134"/>
<path d="M257.247 544.298H237.461V563.039H257.247V544.298Z" fill="#270F6B"/>
<path d="M257.247 525.556H237.461V544.298H257.247V525.556Z" fill="#270F6B"/>
<path d="M257.247 506.798H237.461V525.54H257.247V506.798Z" fill="#FAC134"/>
<path d="M257.247 488.056H237.461V506.798H257.247V488.056Z" fill="#FAC134"/>
<path d="M257.247 469.314H237.461V488.056H257.247V469.314Z" fill="#270F6B"/>
<path d="M257.247 450.572H237.461V469.314H257.247V450.572Z" fill="#F26704"/>
<path d="M257.247 431.814H237.461V450.556H257.247V431.814Z" fill="#F26704"/>
<path d="M257.247 413.073H237.461V431.814H257.247V413.073Z" fill="#FC8119"/>
<path d="M257.247 394.331H237.461V413.073H257.247V394.331Z" fill="#FC8119"/>
<path d="M257.247 375.573H237.461V394.314H257.247V375.573Z" fill="#FC8119"/>
<path d="M257.247 356.831H237.461V375.573H257.247V356.831Z" fill="#270F6B"/>
<path d="M257.247 338.089H237.461V356.831H257.247V338.089Z" fill="#270F6B"/>
<path d="M257.247 319.347H237.461V338.089H257.247V319.347Z" fill="#FAC134"/>
<path d="M257.247 300.589H237.461V319.331H257.247V300.589Z" fill="#FAC134"/>
<path d="M257.247 281.847H237.461V300.589H257.247V281.847Z" fill="#FAC134"/>
<path d="M257.247 263.106H237.461V281.847H257.247V263.106Z" fill="#FBE134"/>
<path d="M257.247 244.364H237.461V263.106H257.247V244.364Z" fill="#270F6B"/>
<path d="M257.247 225.606H237.461V244.347H257.247V225.606Z" fill="#270F6B"/>
<path d="M257.247 206.864H237.461V225.606H257.247V206.864Z" fill="#ECA227"/>
<path d="M257.247 188.122H237.461V206.864H257.247V188.122Z" fill="#ECA227"/>
<path d="M257.247 169.364H237.461V188.106H257.247V169.364Z" fill="#270F6B"/>
<path d="M257.247 150.622H237.461V169.364H257.247V150.622Z" fill="#270F6B"/>
<path d="M237.461 675.523H217.675V694.265H237.461V675.523Z" fill="#270F6B"/>
<path d="M237.461 656.781H217.675V675.523H237.461V656.781Z" fill="#ECA227"/>
<path d="M237.461 638.023H217.675V656.765H237.461V638.023Z" fill="#ECA227"/>
<path d="M237.461 619.281H217.675V638.023H237.461V619.281Z" fill="#FAC134"/>
<path d="M237.461 600.539H217.675V619.281H237.461V600.539Z" fill="#FBE134"/>
<path d="M237.461 581.781H217.675V600.523H237.461V581.781Z" fill="#FBE134"/>
<path d="M237.461 563.039H217.675V581.781H237.461V563.039Z" fill="#FAC134"/>
<path d="M237.461 544.298H217.675V563.039H237.461V544.298Z" fill="#FAC134"/>
<path d="M237.461 525.556H217.675V544.298H237.461V525.556Z" fill="#270F6B"/>
<path d="M237.461 506.798H217.675V525.54H237.461V506.798Z" fill="#ECA227"/>
<path d="M237.461 488.056H217.675V506.798H237.461V488.056Z" fill="#FAC134"/>
<path d="M237.461 469.314H217.675V488.056H237.461V469.314Z" fill="#270F6B"/>
<path d="M237.461 450.572H217.675V469.314H237.461V450.572Z" fill="#F26704"/>
<path d="M237.461 431.814H217.675V450.556H237.461V431.814Z" fill="#FC8119"/>
<path d="M237.461 413.073H217.675V431.814H237.461V413.073Z" fill="#FC8119"/>
<path d="M237.461 394.331H217.675V413.073H237.461V394.331Z" fill="#FBE134"/>
<path d="M237.461 375.573H217.675V394.314H237.461V375.573Z" fill="#FC8119"/>
<path d="M237.461 356.831H217.675V375.573H237.461V356.831Z" fill="#270F6B"/>
<path d="M237.461 338.089H217.675V356.831H237.461V338.089Z" fill="#ECA227"/>
<path d="M237.461 319.347H217.675V338.089H237.461V319.347Z" fill="#FAC134"/>
<path d="M237.461 300.589H217.675V319.331H237.461V300.589Z" fill="#FAC134"/>
<path d="M237.461 281.847H217.675V300.589H237.461V281.847Z" fill="#270F6B"/>
<path d="M237.461 263.106H217.675V281.847H237.461V263.106Z" fill="#270F6B"/>
<path d="M237.461 244.364H217.675V263.106H237.461V244.364Z" fill="#270F6B"/>
<path d="M237.461 225.606H217.675V244.347H237.461V225.606Z" fill="#ECA227"/>
<path d="M237.461 206.864H217.675V225.606H237.461V206.864Z" fill="#ECA227"/>
<path d="M237.461 188.122H217.675V206.864H237.461V188.122Z" fill="#270F6B"/>
<path d="M237.461 169.364H217.675V188.106H237.461V169.364Z" fill="#270F6B"/>
<path d="M217.675 675.523H197.889V694.265H217.675V675.523Z" fill="#270F6B"/>
<path d="M217.675 656.781H197.889V675.523H217.675V656.781Z" fill="#270F6B"/>
<path d="M217.675 638.023H197.889V656.765H217.675V638.023Z" fill="#ECA227"/>
<path d="M217.675 619.281H197.889V638.023H217.675V619.281Z" fill="#FAC134"/>
<path d="M217.675 600.539H197.889V619.281H217.675V600.539Z" fill="#FBE134"/>
<path d="M217.675 581.781H197.889V600.523H217.675V581.781Z" fill="#FBE134"/>
<path d="M217.675 563.039H197.889V581.781H217.675V563.039Z" fill="#FAC134"/>
<path d="M217.675 544.298H197.889V563.039H217.675V544.298Z" fill="#FAC134"/>
<path d="M217.675 525.556H197.889V544.298H217.675V525.556Z" fill="#270F6B"/>
<path d="M217.675 506.798H197.889V525.54H217.675V506.798Z" fill="#270F6B"/>
<path d="M217.675 488.056H197.889V506.798H217.675V488.056Z" fill="#ECA227"/>
<path d="M217.675 469.314H197.889V488.056H217.675V469.314Z" fill="#270F6B"/>
<path d="M217.675 450.572H197.889V469.314H217.675V450.572Z" fill="#FC8119"/>
<path d="M217.675 431.814H197.889V450.556H217.675V431.814Z" fill="#FBE134"/>
<path d="M217.675 413.073H197.889V431.814H217.675V413.073Z" fill="#FCF293"/>
<path d="M217.675 394.331H197.889V413.073H217.675V394.331Z" fill="#FCF293"/>
<path d="M217.675 375.573H197.889V394.314H217.675V375.573Z" fill="#FC8119"/>
<path d="M217.675 356.831H197.889V375.573H217.675V356.831Z" fill="#270F6B"/>
<path d="M217.675 338.089H197.889V356.831H217.675V338.089Z" fill="#270F6B"/>
<path d="M217.675 319.347H197.889V338.089H217.675V319.347Z" fill="#270F6B"/>
<path d="M217.675 300.589H197.889V319.331H217.675V300.589Z" fill="#270F6B"/>
<path d="M217.675 281.847H197.889V300.589H217.675V281.847Z" fill="#ECA227"/>
<path d="M217.675 263.106H197.889V281.847H217.675V263.106Z" fill="#ECA227"/>
<path d="M217.675 244.364H197.889V263.106H217.675V244.364Z" fill="#ECA227"/>
<path d="M217.675 225.606H197.889V244.347H217.675V225.606Z" fill="#ECA227"/>
<path d="M217.675 206.864H197.889V225.606H217.675V206.864Z" fill="#270F6B"/>
<path d="M217.675 188.122H197.889V206.864H217.675V188.122Z" fill="#270F6B"/>
<path d="M197.889 656.781H178.104V675.523L197.889 675.523V656.781Z" fill="#270F6B"/>
<path d="M197.889 638.023H178.104V656.765H197.889V638.023Z" fill="#ECA227"/>
<path d="M197.889 619.281H178.104V638.023H197.889V619.281Z" fill="#ECA227"/>
<path d="M197.889 600.539H178.104V619.281H197.889V600.539Z" fill="#FAC134"/>
<path d="M197.889 581.781H178.104V600.523H197.889V581.781Z" fill="#FBE134"/>
<path d="M197.889 563.039H178.104V581.781H197.889V563.039Z" fill="#FBE134"/>
<path d="M197.889 544.298H178.104V563.039H197.889V544.298Z" fill="#FAC134"/>
<path d="M197.889 525.556H178.104V544.298H197.889V525.556Z" fill="#FAC134"/>
<path d="M197.889 506.798H178.104V525.54H197.889V506.798Z" fill="#270F6B"/>
<path d="M197.889 488.056H178.104V506.798H197.889V488.056Z" fill="#270F6B"/>
<path d="M197.889 469.314H178.104V488.056H197.889V469.314Z" fill="#FAC134"/>
<path d="M197.889 450.572H178.104V469.314H197.889V450.572Z" fill="#270F6B"/>
<path d="M197.889 431.814H178.104V450.556H197.889V431.814Z" fill="#270F6B"/>
<path d="M197.889 413.073H178.104V431.814H197.889V413.073Z" fill="#270F6B"/>
<path d="M197.889 394.331H178.104V413.073H197.889V394.331Z" fill="#270F6B"/>
<path d="M197.889 375.573H178.104V394.314H197.889V375.573Z" fill="#270F6B"/>
<path d="M197.889 356.831H178.104V375.573H197.889V356.831Z" fill="#270F6B"/>
<path d="M197.889 338.089H178.104V356.831H197.889V338.089Z" fill="#ECA227"/>
<path d="M197.889 319.347H178.104V338.089H197.889V319.347Z" fill="#ECA227"/>
<path d="M197.889 300.589H178.104V319.331H197.889V300.589Z" fill="#ECA227"/>
<path d="M197.889 281.847H178.104V300.589H197.889V281.847Z" fill="#270F6B"/>
<path d="M197.889 263.106H178.104V281.847H197.889V263.106Z" fill="#270F6B"/>
<path d="M197.889 244.364H178.104V263.106H197.889V244.364Z" fill="#270F6B"/>
<path d="M197.889 225.606H178.104V244.347H197.889V225.606Z" fill="#270F6B"/>
<path d="M178.087 656.781H158.302V675.523H178.087V656.781Z" fill="#270F6B"/>
<path d="M178.087 638.023H158.302V656.765H178.087V638.023Z" fill="#270F6B"/>
<path d="M178.087 619.281H158.302V638.023H178.087V619.281Z" fill="#ECA227"/>
<path d="M178.087 600.539H158.302V619.281H178.087V600.539Z" fill="#FAC134"/>
<path d="M178.087 581.781H158.302V600.523H178.087V581.781Z" fill="#FBE134"/>
<path d="M178.087 563.039H158.302V581.781H178.087V563.039Z" fill="#FBE134"/>
<path d="M178.087 544.298H158.302V563.039H178.087V544.298Z" fill="#FAC134"/>
<path d="M178.087 525.556H158.302V544.298H178.087V525.556Z" fill="#FAC134"/>
<path d="M178.087 506.798H158.302V525.54H178.087V506.798Z" fill="#FAC134"/>
<path d="M178.087 488.056H158.302V506.798H178.087V488.056Z" fill="#270F6B"/>
<path d="M178.087 469.314H158.302V488.056H178.087V469.314Z" fill="#ECA227"/>
<path d="M178.087 450.572H158.302V469.314H178.087V450.572Z" fill="#FAC134"/>
<path d="M178.087 431.814H158.302V450.556H178.087V431.814Z" fill="#FAC134"/>
<path d="M178.087 413.073H158.302V431.814H178.087V413.073Z" fill="#FAC134"/>
<path d="M178.087 394.331H158.302V413.073H178.087V394.331Z" fill="#FAC134"/>
<path d="M178.087 375.573H158.302V394.314H178.087V375.573Z" fill="#270F6B"/>
<path d="M178.087 356.831H158.302V375.573H178.087V356.831Z" fill="#270F6B"/>
<path d="M178.087 338.089H158.302V356.831H178.087V338.089Z" fill="#270F6B"/>
<path d="M178.087 319.347H158.302V338.089H178.087V319.347Z" fill="#270F6B"/>
<path d="M178.087 300.589H158.302V319.331H178.087V300.589Z" fill="#270F6B"/>
<path d="M178.087 281.847H158.302V300.589H178.087V281.847Z" fill="#270F6B"/>
<path d="M158.317 638.023H138.532V656.765H158.317V638.023Z" fill="#270F6B"/>
<path d="M158.317 619.281H138.532V638.023H158.317V619.281Z" fill="#ECA227"/>
<path d="M158.317 600.539H138.532V619.281H158.317V600.539Z" fill="#ECA227"/>
<path d="M158.317 581.781H138.532V600.523H158.317V581.781Z" fill="#FAC134"/>
<path d="M158.317 563.039H138.532V581.781H158.317V563.039Z" fill="#FBE134"/>
<path d="M158.317 544.298H138.532V563.039H158.317V544.298Z" fill="#FBE134"/>
<path d="M158.317 525.556H138.532V544.298H158.317V525.556Z" fill="#FAC134"/>
<path d="M158.317 506.798H138.532V525.54H158.317V506.798Z" fill="#FAC134"/>
<path d="M158.317 488.056H138.532V506.798H158.317V488.056Z" fill="#270F6B"/>
<path d="M158.317 469.314H138.532V488.056H158.317V469.314Z" fill="#270F6B"/>
<path d="M158.317 450.572H138.532V469.314H158.317V450.572Z" fill="#270F6B"/>
<path d="M158.317 431.814H138.532V450.556H158.317V431.814Z" fill="#270F6B"/>
<path d="M158.317 413.073H138.532V431.814H158.317V413.073Z" fill="#270F6B"/>
<path d="M158.317 394.331H138.532V413.073H158.317V394.331Z" fill="#270F6B"/>
<path d="M158.317 375.573H138.532V394.314H158.317V375.573Z" fill="#270F6B"/>
<path d="M138.516 638.023H118.73V656.765H138.516V638.023Z" fill="#270F6B"/>
<path d="M138.516 619.281H118.73V638.023H138.516V619.281Z" fill="#270F6B"/>
<path d="M138.516 600.539H118.73V619.281H138.516V600.539Z" fill="#ECA227"/>
<path d="M138.516 581.781H118.73V600.523H138.516V581.781Z" fill="#FAC134"/>
<path d="M138.516 563.039H118.73V581.781H138.516V563.039Z" fill="#FBE134"/>
<path d="M138.516 544.298H118.73V563.039H138.516V544.298Z" fill="#FBE134"/>
<path d="M138.516 525.556H118.73V544.298H138.516V525.556Z" fill="#FBE134"/>
<path d="M138.516 506.798H118.73V525.54H138.516V506.798Z" fill="#FBE134"/>
<path d="M138.516 488.056H118.73V506.798H138.516V488.056Z" fill="#FAC134"/>
<path d="M138.516 469.314H118.73V488.056H138.516V469.314Z" fill="#FAC134"/>
<path d="M138.516 450.572H118.73V469.314H138.516V450.572Z" fill="#270F6B"/>
<path d="M138.516 431.814H118.73V450.556H138.516V431.814Z" fill="#ECA227"/>
<path d="M138.516 413.073H118.73V431.814H138.516V413.073Z" fill="#270F6B"/>
<path d="M138.516 394.331H118.73V413.073H138.516V394.331Z" fill="#270F6B"/>
<path d="M118.73 619.281H98.9442V638.023H118.73V619.281Z" fill="#270F6B"/>
<path d="M118.73 600.539H98.9442V619.281H118.73V600.539Z" fill="#ECA227"/>
<path d="M118.73 581.781H98.9442V600.523H118.73V581.781Z" fill="#ECA227"/>
<path d="M118.73 563.039H98.9442V581.781H118.73V563.039Z" fill="#FAC134"/>
<path d="M118.73 544.298H98.9442V563.039H118.73V544.298Z" fill="#FAC134"/>
<path d="M118.73 525.556H98.9442V544.298H118.73V525.556Z" fill="#FBE134"/>
<path d="M118.73 506.798H98.9442V525.54H118.73V506.798Z" fill="#FBE134"/>
<path d="M118.73 488.056H98.9442V506.798H118.73V488.056Z" fill="#FBE134"/>
<path d="M118.73 469.314H98.9442V488.056H118.73V469.314Z" fill="#FBE134"/>
<path d="M118.73 450.572H98.9442V469.314H118.73V450.572Z" fill="#FAC134"/>
<path d="M118.73 431.814H98.9442V450.556H118.73V431.814Z" fill="#FAC134"/>
<path d="M118.73 413.073H98.9442V431.814H118.73V413.073Z" fill="#270F6B"/>
<path d="M98.9442 619.281H79.1588V638.023H98.9442V619.281Z" fill="#270F6B"/>
<path d="M98.9442 600.539H79.1588V619.281H98.9442V600.539Z" fill="#270F6B"/>
<path d="M98.9442 581.781H79.1588V600.523H98.9442V581.781Z" fill="#ECA227"/>
<path d="M98.9442 563.039H79.1588V581.781H98.9442V563.039Z" fill="#ECA227"/>
<path d="M98.9442 544.298H79.1588V563.039H98.9442V544.298Z" fill="#FAC134"/>
<path d="M98.9442 525.556H79.1588V544.298H98.9442V525.556Z" fill="#FBE134"/>
<path d="M98.9442 506.798H79.1588V525.54H98.9442V506.798Z" fill="#FBE134"/>
<path d="M98.9442 488.056H79.1588V506.798H98.9442V488.056Z" fill="#FBE134"/>
<path d="M98.9442 469.314H79.1588V488.056H98.9442V469.314Z" fill="#FBE134"/>
<path d="M98.9442 450.572H79.1588V469.314H98.9442V450.572Z" fill="#ECA227"/>
<path d="M98.9442 431.814H79.1588V450.556H98.9442V431.814Z" fill="#270F6B"/>
<path d="M98.9442 413.073H79.1588V431.814H98.9442V413.073Z" fill="#270F6B"/>
<path d="M79.1425 600.539H59.3567V619.281H79.1425V600.539Z" fill="#270F6B"/>
<path d="M79.1425 581.781H59.3567V600.523H79.1425V581.781Z" fill="#270F6B"/>
<path d="M79.1425 563.039H59.3567V581.781H79.1425V563.039Z" fill="#ECA227"/>
<path d="M79.1425 544.298H59.3567V563.039H79.1425V544.298Z" fill="#ECA227"/>
<path d="M79.1425 525.556H59.3567V544.298H79.1425V525.556Z" fill="#FAC134"/>
<path d="M79.1425 506.798H59.3567V525.54H79.1425V506.798Z" fill="#FAC134"/>
<path d="M79.1425 488.056H59.3567V506.798H79.1425V488.056Z" fill="#FBE134"/>
<path d="M79.1425 469.314H59.3567V488.056H79.1425V469.314Z" fill="#ECA227"/>
<path d="M79.1425 450.572H59.3567V469.314H79.1425V450.572Z" fill="#270F6B"/>
<path d="M79.1425 431.814H59.3567V450.556H79.1425V431.814Z" fill="#270F6B"/>
<path d="M59.3732 581.781H39.5875V600.523H59.3732V581.781Z" fill="#270F6B"/>
<path d="M59.3732 563.039H39.5875V581.781H59.3732V563.039Z" fill="#270F6B"/>
<path d="M59.3732 544.298H39.5875V563.039H59.3732V544.298Z" fill="#ECA227"/>
<path d="M59.3732 525.556H39.5875V544.298H59.3732V525.556Z" fill="#ECA227"/>
<path d="M59.3732 506.798H39.5875V525.54H59.3732V506.798Z" fill="#ECA227"/>
<path d="M59.3732 488.056H39.5875V506.798H59.3732V488.056Z" fill="#ECA227"/>
<path d="M59.3732 469.314H39.5875V488.056H59.3732V469.314Z" fill="#270F6B"/>
<path d="M59.3732 450.572H39.5875V469.314H59.3732V450.572Z" fill="#270F6B"/>
<path d="M39.571 563.039H19.7852V581.781H39.571V563.039Z" fill="#270F6B"/>
<path d="M39.571 544.298H19.7852V563.039H39.571V544.298Z" fill="#270F6B"/>
<path d="M39.571 525.556H19.7852V544.298H39.571V525.556Z" fill="#ECA227"/>
<path d="M39.571 506.798H19.7852V525.54H39.571V506.798Z" fill="#270F6B"/>
<path d="M39.571 488.056H19.7852V506.798H39.571V488.056Z" fill="#270F6B"/>
<path d="M39.571 469.314H19.7852V488.056H39.571V469.314Z" fill="#270F6B"/>
<path d="M19.7852 544.298H0V563.039H19.7852V544.298Z" fill="#270F6B"/>
<path d="M19.7852 525.556H0V544.298H19.7852V525.556Z" fill="#270F6B"/>
<path d="M19.7852 506.798H0V525.54H19.7852V506.798Z" fill="#270F6B"/>
</svg>
